<svg width="35" height="35" viewBox="0 0 35 35" fill="none" xmlns="http://www.w3.org/2000/svg">
<path d="M27.5 11.6667H25.8334V8.33333C25.8334 3.66667 22.1667 0 17.5 0C12.8334 0 9.16669 3.66667 9.16669 8.33333V11.6667H7.50002C5.66669 11.6667 4.16669 13.1667 4.16669 15V31.6667C4.16669 33.5 5.66669 35 7.50002 35H27.5C29.3334 35 30.8334 33.5 30.8334 31.6667V15C30.8334 13.1667 29.3334 11.6667 27.5 11.6667ZM17.5 26.6667C15.6667 26.6667 14.1667 25.1667 14.1667 23.3333C14.1667 21.5 15.6667 20 17.5 20C19.3334 20 20.8334 21.5 20.8334 23.3333C20.8334 25.1667 19.3334 26.6667 17.5 26.6667ZM22.6667 11.6667H12.3334V8.33333C12.3334 5.5 14.6667 3.16667 17.5 3.16667C20.3334 3.16667 22.6667 5.5 22.6667 8.33333V11.6667Z" fill="#0552A3"/>
</svg>
