<svg width="35" height="35" viewBox="0 0 35 35" fill="none" xmlns="http://www.w3.org/2000/svg">
<path d="M17.4997 0C7.83484 0 0 7.83502 0 17.5C0 27.1651 7.83484 35 17.4997 35C27.1648 35 35 27.165 35 17.5C35 7.83502 27.1649 0 17.4997 0ZM21.013 26.9754C21.013 27.6912 20.4327 28.2715 19.7169 28.2715H17.3296C16.6138 28.2715 16.0335 27.6912 16.0335 26.9754V12.4292L14.556 13.2268C14.2044 13.4166 13.7849 13.4335 13.4194 13.2731C13.0536 13.1125 12.7823 12.7922 12.6841 12.4051L12.2124 10.5458C12.0659 9.96835 12.3319 9.3655 12.857 9.08443L16.9722 6.88188C17.1603 6.78114 17.3703 6.72852 17.5837 6.72852H19.7169C20.4327 6.72852 21.013 7.30881 21.013 8.02459V26.9754Z" fill="#0552A4"/>
</svg>
