<svg width="35" height="35" viewBox="0 0 35 35" fill="none" xmlns="http://www.w3.org/2000/svg">
<path d="M15.7114 16.7368C15.7114 17.3623 15.2338 17.7642 14.4277 17.7642H13.7931V15.7918C13.9106 15.7703 14.133 15.7387 14.5236 15.7387C15.2654 15.7511 15.7114 16.0797 15.7114 16.7368ZM34.9986 17.5C34.9986 18.8571 34.468 20.134 33.5117 21.0926L31.362 23.2423V26.2805C31.362 29.0794 29.0814 31.3611 26.2814 31.3611H23.2431L21.0957 33.5108C20.1338 34.4705 18.858 35 17.4998 35C16.1415 35 14.8657 34.4705 13.9049 33.5097L11.7586 31.3645H8.71927C7.36105 31.3645 6.08637 30.835 5.12556 29.8776C4.16476 28.9145 3.63863 27.6432 3.63863 26.2839V23.2423L1.48895 21.096C0.529272 20.1352 0.00201416 18.8605 0.00201416 17.5023C0.00201416 16.144 0.532659 14.8682 1.48895 13.9097L3.63863 11.7611V8.72177C3.63863 5.92065 5.91927 3.64113 8.71927 3.64113H11.7575L13.9072 1.49032C14.8657 0.530645 16.1404 0 17.4998 0C18.8591 0 20.1338 0.529516 21.0946 1.49032L23.2409 3.63661H26.2802C27.6362 3.63661 28.9131 4.165 29.8728 5.12355C30.8348 6.08548 31.3609 7.36016 31.3609 8.71726V11.7566L33.5106 13.9063C34.468 14.866 34.9986 16.1418 34.9986 17.5ZM10.9773 14.5961H6.6125V21.7361H8.23379V18.865H10.7978V17.5508H8.23379V15.9194H10.9796V14.595L10.9773 14.5961ZM17.5856 21.7361C17.4478 21.4606 17.2265 20.5303 17.003 19.7242C16.8223 19.0682 16.548 18.5895 16.0478 18.3885V18.3581C16.662 18.1356 17.309 17.5113 17.309 16.599C17.309 15.9419 17.0752 15.444 16.6519 15.1053C16.1438 14.7034 15.402 14.5431 14.3419 14.5431C13.4827 14.5431 12.7104 14.6074 12.191 14.6921V21.7361H13.7909V18.9294H14.2798C14.9369 18.9406 15.2439 19.1845 15.4336 20.0753C15.6459 20.9537 15.8152 21.5374 15.9304 21.7384L17.5856 21.7361ZM23.0275 20.4129H20.0898V18.7171H22.7181V17.4029H20.0898V15.9194H22.8796V14.595H18.4707V21.735H23.0275V20.4129ZM28.6817 20.4129H25.7462V18.7171H28.3735V17.4029H25.7462V15.9194H28.5338V14.595H24.1272V21.735H28.6817V20.4129Z" fill="#0552A3"/>
</svg>
