<svg width="41" height="41" viewBox="0 0 41 41" fill="none" xmlns="http://www.w3.org/2000/svg">
<g clip-path="url(#clip0)">
<path d="M12.6192 21.3164C12.5932 21.3164 12.5673 21.3155 12.541 21.3139L1.25309 20.6092C0.823606 20.5826 0.43823 20.337 0.232404 19.9595C0.026891 19.5819 0.0293934 19.1249 0.239599 18.7496C0.298719 18.6438 1.72136 16.1354 4.43056 13.9477C8.09164 10.9917 12.3477 10.0329 16.7382 11.1753C17.1026 11.2701 17.4048 11.5241 17.5612 11.8666C17.7176 12.2091 17.7113 12.6039 17.544 12.9411L13.74 20.6208C13.5279 21.0487 13.0921 21.3164 12.6192 21.3164Z" fill="#FF2C52"/>
<path d="M21.719 41C21.5132 41 21.3074 40.9493 21.1206 40.8474C20.7431 40.6415 20.4975 40.2565 20.4706 39.827L19.7662 28.5391C19.7349 28.0364 20.008 27.5638 20.4593 27.3401L28.139 23.5358C28.4766 23.3687 28.871 23.3625 29.2135 23.5189C29.5564 23.675 29.81 23.9775 29.9048 24.3419C31.0475 28.7324 30.0888 32.9884 27.1324 36.6495C24.945 39.3587 22.4363 40.781 22.3305 40.8405C22.1407 40.9468 21.9298 41 21.719 41Z" fill="#FF2C52"/>
<path d="M39.0734 10.0945L30.9855 2.00664C30.6615 1.68257 30.186 1.56183 29.7465 1.69165C24.3322 3.29321 19.8875 5.80504 16.5352 9.15706C15.8361 9.85649 15.1645 10.6144 14.5395 11.4096C12.7221 13.7203 11.204 16.4523 10.0279 19.53C9.27873 21.4916 8.66876 23.593 8.21488 25.7758C7.42223 29.5886 7.37969 32.3212 7.37813 32.4357C7.37406 32.7726 7.50607 33.0973 7.74442 33.3357C7.97903 33.5703 8.29746 33.702 8.62904 33.702H8.64436C8.75916 33.7007 11.4918 33.6582 15.3043 32.8655C17.4871 32.4116 19.5885 31.8017 21.5504 31.0522C24.6278 29.876 27.3598 28.3583 29.6699 26.5412C30.4657 25.9159 31.2236 25.2443 31.923 24.5449C35.2754 21.1926 37.7872 16.7479 39.3884 11.3336C39.5186 10.8941 39.3975 10.4186 39.0734 10.0945Z" fill="#0552A4"/>
<path d="M16.1589 30.9809L10.0992 24.9212C9.65191 24.4739 8.94091 24.431 8.44292 24.8214C8.05598 25.1248 7.68781 25.4508 7.34873 25.7899C3.13242 30.0062 3.00198 36.5391 2.99854 36.815C2.99416 37.1522 3.12617 37.4769 3.36484 37.7153C3.59944 37.9502 3.91756 38.0819 4.24914 38.0819C4.25446 38.0819 4.25977 38.0819 4.26509 38.0816C4.54099 38.0781 11.0742 37.9477 15.2902 33.7314C15.6293 33.3923 15.9553 33.0241 16.2587 32.6372C16.6491 32.1392 16.6062 31.4282 16.1589 30.9809Z" fill="#FFF261"/>
<path d="M10.1246 19.2798L6.40687 22.9978C6.17226 23.232 6.04026 23.5502 6.04026 23.8821C6.04026 24.2136 6.17226 24.5318 6.40687 24.7664L16.3137 34.6732C16.548 34.9078 16.8661 35.0395 17.198 35.0395C17.5299 35.0395 17.8477 34.9078 18.0823 34.6732L21.8 30.9555L10.1246 19.2798Z" fill="#1B3B6B"/>
<path d="M26.3538 18.5422C25.3347 18.5422 24.3763 18.1452 23.6556 17.4245C22.1679 15.9368 22.1679 13.5163 23.6556 12.0283C24.3763 11.3076 25.3347 10.9106 26.3538 10.9106C27.373 10.9106 28.3314 11.3076 29.0521 12.0283C29.7728 12.749 30.1697 13.7071 30.1697 14.7266C30.1697 15.7457 29.7728 16.7038 29.0521 17.4245C28.3314 18.1452 27.373 18.5422 26.3538 18.5422Z" fill="#06CCAB"/>
<path d="M26.3535 19.7655C25.0075 19.7655 23.7422 19.2413 22.7907 18.2897C20.8259 16.325 20.8259 13.1281 22.7907 11.1634C23.7422 10.2119 25.0078 9.68759 26.3535 9.68759C27.6995 9.68759 28.9648 10.2119 29.9167 11.1634C30.8686 12.1153 31.3925 13.3806 31.3925 14.7266C31.3925 16.0726 30.8686 17.3379 29.9167 18.2897C28.9648 19.2413 27.6995 19.7655 26.3535 19.7655ZM26.3535 12.1891C25.676 12.1891 25.0385 12.4531 24.5593 12.9323C23.5702 13.9217 23.5702 15.5314 24.5593 16.5208C25.0385 17 25.676 17.264 26.3535 17.264C27.0314 17.264 27.6686 17 28.1478 16.5208C28.627 16.0416 28.891 15.4044 28.891 14.7266C28.891 14.0487 28.627 13.4115 28.1478 12.9323C27.6686 12.4531 27.0314 12.1891 26.3535 12.1891Z" fill="#E2EEFD"/>
<path d="M40.7138 0.366602C40.4751 0.127931 40.1486 -0.00626224 39.8132 0.000306669C39.6277 0.00249631 35.2062 0.0769439 29.7465 1.69165L39.3884 11.3336C41.0031 5.87385 41.0776 1.45235 41.0798 1.26686C41.0842 0.929651 40.9521 0.604959 40.7138 0.366602Z" fill="#FF2C52"/>
<path d="M39.0734 10.0945L35.0295 6.0506L7.74442 33.3357C7.97903 33.5703 8.29715 33.702 8.62872 33.702H8.64436C8.75885 33.7007 11.4915 33.6582 15.3043 32.8655C17.4871 32.4116 19.5882 31.8017 21.5501 31.0522C24.6278 29.876 27.3598 28.3583 29.6699 26.5412C30.4654 25.9159 31.2236 25.2443 31.9227 24.5449C35.275 21.1926 37.7869 16.7479 39.3881 11.3336C39.5186 10.8941 39.3975 10.4186 39.0734 10.0945Z" fill="#004288"/>
<path d="M16.1589 30.9809L13.1291 27.951L3.36452 37.7153V37.7156C3.59944 37.9502 3.91756 38.0819 4.24914 38.0819H4.26478C4.54099 38.0784 11.0739 37.9477 15.2902 33.7314C15.6293 33.3923 15.9553 33.0241 16.2584 32.6372C16.6491 32.1392 16.6065 31.4282 16.1589 30.9809Z" fill="#FDBF00"/>
<path d="M15.9624 25.1176L11.3601 29.72L16.3137 34.6735C16.548 34.9078 16.8661 35.0398 17.198 35.0398C17.5299 35.0398 17.8477 34.9078 18.0823 34.6735L21.8 30.9555L15.9624 25.1176Z" fill="#001035"/>
<path d="M29.0521 12.0283C29.0518 12.0283 29.0518 12.0283 29.0518 12.0283L23.6556 17.4245H23.6559C24.3763 18.1452 25.3347 18.5422 26.3538 18.5422C27.373 18.5422 28.3314 18.1452 29.0521 17.4245C29.7728 16.7038 30.1697 15.7457 30.1697 14.7266C30.1694 13.7074 29.7728 12.749 29.0521 12.0283Z" fill="#1CADB5"/>
<path d="M29.9167 11.1634L28.1478 12.9323C28.627 13.4115 28.891 14.0487 28.891 14.7266C28.891 15.4044 28.627 16.0416 28.1478 16.5208C27.6686 17 27.0314 17.264 26.3535 17.264C25.6757 17.264 25.0385 17 24.5593 16.5208C24.5593 16.5208 24.5593 16.5208 24.5593 16.5205L22.7904 18.2894V18.2897C23.7422 19.2413 25.0075 19.7655 26.3535 19.7655C27.6995 19.7655 28.9648 19.2413 29.9167 18.2897C30.8683 17.3379 31.3925 16.0726 31.3925 14.7266C31.3925 13.3806 30.8683 12.1153 29.9167 11.1634Z" fill="#B9D1EF"/>
<path d="M40.7135 0.366302L34.5675 6.51262L39.3884 11.3336C41.0031 5.87387 41.0776 1.45236 41.0798 1.26687C41.0841 0.929665 40.9521 0.604973 40.7135 0.366302Z" fill="#FF2C52"/>
</g>
<defs>
<clipPath id="clip0">
<rect width="41" height="41" fill="white"/>
</clipPath>
</defs>
</svg>
