<svg width="193" height="93" viewBox="0 0 193 93" fill="none" xmlns="http://www.w3.org/2000/svg">
<g clip-path="url(#clip0)">
<path d="M41.2706 81.0681C41.2706 72.7469 48.2675 66.0016 56.8986 66.0016C65.5296 66.0016 72.5265 72.7469 72.5265 81.0681" fill="#1D2141"/>
<path d="M120.23 52.4753V2.50092C120.23 1.11999 119.103 0 117.715 0H8.13005C6.73954 0 5.61145 1.12169 5.61145 2.50431V52.4753H120.23Z" fill="url(#paint0_linear)"/>
<path d="M7.78243 62.3688H118.061C119.259 62.3688 120.23 61.4047 120.23 60.2135V46.816L5.61316 42.7495V60.2118C5.61146 61.403 6.58277 62.3688 7.78243 62.3688Z" fill="#CACBD6"/>
<path d="M120.228 58.9004H5.61145V65.8965H120.228V58.9004Z" fill="#A0A4B7"/>
<path d="M5.61145 45.8502C5.61145 45.8502 58.347 45.9197 120.281 50.9131V45.735C120.281 45.735 72.1379 42.7512 5.61145 40.4943V45.8502Z" fill="#E1A900"/>
<path d="M126.869 65.8423H8.54242V77.432H126.869V65.8423Z" fill="#1D2141"/>
<path d="M144.979 32.9798L148.082 33.5644C147.068 33.2848 146.032 33.0899 144.979 32.9798Z" fill="#53AF4B"/>
<path d="M144.966 32.9779L144.968 32.9799C144.972 32.9799 144.974 32.9799 144.978 32.9819L144.966 32.9779Z" fill="#53AF4B"/>
<path d="M38.8968 71.4186H37.1996V87.5119H38.8968V71.4186Z" fill="#1D2141"/>
<path d="M117.676 58.3294C152.583 59.1868 178.076 73.5349 178.076 73.5349L192.998 72.7351L192.298 60.7914C191.855 55.1118 191.402 53.5699 182.91 48.0292C179.272 45.6554 172.567 42.5106 168.526 38.2763C162.678 32.146 157.458 26.5257 156.53 25.5921C155.678 24.7347 152.011 21.4324 146.094 21.4324C138.32 21.4324 120.22 21.4324 120.22 21.4324C118.785 21.4324 117.624 22.5896 117.626 24.0163L117.633 27.7846" fill="url(#paint1_linear)"/>
<path d="M117.675 72.8266C117.675 77.4049 121.043 81.1156 125.195 81.1156L186.686 81.1037C189.718 81.1037 190.103 75.7003 192.998 72.7351L176.653 73.5349L167.299 63.6515L161.461 58.3294V58.2989L117.657 47.6463L117.675 72.8266Z" fill="url(#paint2_linear)"/>
<path d="M117.675 72.4335C117.675 78.2808 121.082 81.1172 125.305 81.1172H184.744C193.431 81.1172 192.998 81.8695 192.998 72.4335H117.675Z" fill="url(#paint3_linear)"/>
<path d="M192.596 79.5262H120.504C120.504 79.5262 122.276 81.1173 124.611 81.1173C126.946 81.1173 190.377 81.1173 190.377 81.1173C191.337 81.1173 192.206 80.4937 192.596 79.5262Z" fill="url(#paint4_linear)"/>
<g opacity="0.33">
<path opacity="0.33" d="M192.487 79.7804H120.831L120.177 79.2721H192.705L192.487 79.7804Z" fill="#F2F2F5"/>
</g>
<path d="M191.896 58.3294H182.07C181.254 58.3294 180.698 59.1545 181.012 59.9052L182.123 62.5721C182.668 63.8802 183.951 64.7325 185.374 64.7325H191.79H192.605C192.605 64.7308 192.509 60.2983 191.896 58.3294Z" fill="#1D2141"/>
<path d="M114.111 52.4803V2.50596C114.111 1.12503 112.984 0.0050354 111.595 0.0050354H2.01079C0.620275 0.0050354 -0.507812 1.12672 -0.507812 2.50934V52.4803H114.111Z" fill="url(#paint5_linear)"/>
<path d="M1.66316 62.3738H111.94C113.138 62.3738 114.109 61.4097 114.109 60.2185V46.8227L-0.507812 42.7562V60.2185C-0.507812 61.408 0.465205 62.3738 1.66316 62.3738Z" fill="url(#paint6_linear)"/>
<path d="M114.109 58.8478H-0.507812V65.844H114.109V58.8478Z" fill="#CACBD6"/>
<path d="M110.972 63.6498H3.13376C2.55779 63.6498 2.08917 63.1855 2.08917 62.6111C2.08917 62.0384 2.55608 61.5724 3.13376 61.5724H110.973C111.549 61.5724 112.018 62.0367 112.018 62.6111C112.016 63.1855 111.549 63.6498 110.972 63.6498Z" fill="#A0A4B7"/>
<path d="M22.1851 56.2029C22.4882 56.2029 22.7338 55.9587 22.7338 55.6573C22.7338 55.356 22.4882 55.1117 22.1851 55.1117C21.8821 55.1117 21.6364 55.356 21.6364 55.6573C21.6364 55.9587 21.8821 56.2029 22.1851 56.2029Z" fill="#A0A4B7"/>
<path d="M41.913 56.2029C42.2161 56.2029 42.4617 55.9587 42.4617 55.6573C42.4617 55.356 42.2161 55.1117 41.913 55.1117C41.61 55.1117 41.3643 55.356 41.3643 55.6573C41.3643 55.9587 41.61 56.2029 41.913 56.2029Z" fill="#A0A4B7"/>
<path d="M62.9207 56.2029C63.2237 56.2029 63.4694 55.9587 63.4694 55.6573C63.4694 55.356 63.2237 55.1117 62.9207 55.1117C62.6176 55.1117 62.3719 55.356 62.3719 55.6573C62.3719 55.9587 62.6176 56.2029 62.9207 56.2029Z" fill="#A0A4B7"/>
<path d="M82.4492 56.2029C82.7523 56.2029 82.9979 55.9587 82.9979 55.6573C82.9979 55.356 82.7523 55.1117 82.4492 55.1117C82.1462 55.1117 81.9005 55.356 81.9005 55.6573C81.9005 55.9587 82.1462 56.2029 82.4492 56.2029Z" fill="#A0A4B7"/>
<path d="M100.947 56.2029C101.25 56.2029 101.495 55.9587 101.495 55.6573C101.495 55.356 101.25 55.1117 100.947 55.1117C100.644 55.1117 100.398 55.356 100.398 55.6573C100.398 55.9587 100.644 56.2029 100.947 56.2029Z" fill="#A0A4B7"/>
<path d="M126.63 26.2004L157.111 26.1953L177.312 44.7167L130.567 44.7014C127.096 44.6998 124.282 41.9023 124.282 38.4491V28.5353C124.282 27.2458 125.334 26.2004 126.63 26.2004Z" fill="url(#paint7_linear)"/>
<path d="M157.76 48.3257H158.048C158.641 48.3257 159.123 47.8479 159.123 47.2565V44.7573H155.533V46.1077C155.531 47.3345 156.528 48.3257 157.76 48.3257Z" fill="#1D2141"/>
<path d="M155.531 44.7596L159.121 44.7596L159.121 42.9754L155.531 42.9754L155.531 44.7596Z" fill="#FFCC00"/>
<path d="M155.531 42.9748H159.122V41.7261C159.122 41.4312 158.881 41.1923 158.585 41.1923H156.068C155.771 41.1923 155.531 41.4312 155.531 41.7261V42.9748Z" fill="#FFE26F"/>
<path d="M161.46 46.0756C161.46 47.7056 160.13 49.0272 158.491 49.0272C156.852 49.0272 155.523 47.7056 155.523 46.0756" fill="#1D2141"/>
<path d="M-0.507812 45.4656C-0.507812 45.4656 52.2038 45.5334 114.109 50.4403V45.3521C114.109 45.3521 61.2098 41.7955 -0.507812 40.2011V45.4656Z" fill="#FFCC00"/>
<path d="M117.657 45.5757C117.657 45.5757 173.649 49.5033 182.755 72.4318H176.665C176.665 72.4318 171.788 55.8692 117.674 50.6996L117.657 45.5757Z" fill="#FFCC00"/>
<path d="M176.084 71.1389C173.761 65.1154 168.388 61.83 162.214 61.83C156.598 61.83 150.301 64.8612 147.987 70.5713C146.404 74.4769 146.84 79.2076 149.163 79.2076C154.391 79.2076 174.444 79.3127 174.444 79.3127C174.444 79.3127 179.236 79.311 176.084 71.1389Z" fill="url(#paint8_linear)"/>
<path d="M146.82 81.1308C146.82 71.8896 153.817 64.3987 162.448 64.3987C171.079 64.3987 178.076 71.8896 178.076 81.1308" fill="#1D2141"/>
<path opacity="0.62" d="M124.282 46.9448V70.9661C124.282 72.3843 125.325 73.5348 126.612 73.5348H141.745C142.868 73.5348 143.833 72.6503 144.036 71.4321L153.539 59.8747C153.762 58.5378 154.447 57.3483 155.449 56.5553C156.698 55.5675 162.105 53.9782 162.105 52.2838V49.1966" stroke="#F2F2F5" stroke-width="3" stroke-miterlimit="10" stroke-linecap="round"/>
<path d="M69.3484 81.1054C69.3484 87.8067 63.8852 93.2406 57.1439 93.2406C50.4027 93.2406 44.9395 87.8084 44.9395 81.1054C44.9395 74.4024 50.4027 68.8939 57.1439 68.8939C63.8852 68.8939 69.3484 74.4041 69.3484 81.1054Z" fill="#2F435A"/>
<path d="M57.1456 87.6745C60.9741 87.6745 64.0777 84.5885 64.0777 80.7818C64.0777 76.975 60.9741 73.889 57.1456 73.889C53.3171 73.889 50.2135 76.975 50.2135 80.7818C50.2135 84.5885 53.3171 87.6745 57.1456 87.6745Z" fill="url(#paint9_linear)"/>
<path d="M57.1456 74.9022C60.8025 74.9022 63.7948 77.7183 64.0573 81.2884C64.0692 81.1206 64.0777 80.9529 64.0777 80.7817C64.0777 76.9762 60.9746 73.889 57.1456 73.889C53.3183 73.889 50.2135 76.9745 50.2135 80.7817C50.2135 80.9529 50.222 81.1206 50.2339 81.2884C50.4947 77.7183 53.4887 74.9022 57.1456 74.9022Z" fill="#002F61"/>
<path d="M174.651 80.8665C174.651 87.5678 169.187 93.0017 162.446 93.0017C155.705 93.0017 150.242 87.5695 150.242 80.8665C150.242 74.1635 155.705 68.655 162.446 68.655C169.187 68.655 174.651 74.1652 174.651 80.8665Z" fill="#2F435A"/>
<path d="M162.448 87.4356C166.276 87.4356 169.38 84.3496 169.38 80.5429C169.38 76.7361 166.276 73.6501 162.448 73.6501C158.619 73.6501 155.516 76.7361 155.516 80.5429C155.516 84.3496 158.619 87.4356 162.448 87.4356Z" fill="url(#paint10_linear)"/>
<path d="M162.448 74.6616C166.105 74.6616 169.097 77.4776 169.36 81.0477C169.372 80.88 169.38 80.7122 169.38 80.5411C169.38 76.7355 166.277 73.6483 162.448 73.6483C158.621 73.6483 155.516 76.7338 155.516 80.5411C155.516 80.7122 155.524 80.88 155.536 81.0477C155.797 77.4776 158.791 74.6616 162.448 74.6616Z" fill="#002F61"/>
<path d="M5.06274 56.2029C5.36579 56.2029 5.61145 55.9587 5.61145 55.6573C5.61145 55.356 5.36579 55.1117 5.06274 55.1117C4.7597 55.1117 4.51404 55.356 4.51404 55.6573C4.51404 55.9587 4.7597 56.2029 5.06274 56.2029Z" fill="#A0A4B7"/>
</g>
<defs>
<linearGradient id="paint0_linear" x1="159.033" y1="26.2373" x2="112.592" y2="26.2373" gradientUnits="userSpaceOnUse">
<stop offset="7.68931e-07" stop-color="#002C5A"/>
<stop offset="1" stop-color="#00336A"/>
</linearGradient>
<linearGradient id="paint1_linear" x1="155.311" y1="24.2868" x2="155.311" y2="62.1291" gradientUnits="userSpaceOnUse">
<stop offset="7.68931e-07" stop-color="#0552A4"/>
<stop offset="1" stop-color="#00438A"/>
</linearGradient>
<linearGradient id="paint2_linear" x1="155.327" y1="53.8821" x2="155.327" y2="93.1523" gradientUnits="userSpaceOnUse">
<stop offset="7.68931e-07" stop-color="#F9F9FA"/>
<stop offset="1" stop-color="#9396AB"/>
</linearGradient>
<linearGradient id="paint3_linear" x1="155.338" y1="100.444" x2="155.338" y2="68.3547" gradientUnits="userSpaceOnUse">
<stop offset="7.68931e-07" stop-color="#888BA1"/>
<stop offset="1" stop-color="#B4B7CE"/>
</linearGradient>
<linearGradient id="paint4_linear" x1="156.55" y1="80.969" x2="156.55" y2="78.661" gradientUnits="userSpaceOnUse">
<stop stop-color="#808FA9"/>
<stop offset="1" stop-color="#B4B7CE" stop-opacity="0"/>
</linearGradient>
<linearGradient id="paint5_linear" x1="56.8017" y1="5.60628" x2="56.8017" y2="85.6309" gradientUnits="userSpaceOnUse">
<stop offset="7.68931e-07" stop-color="#0552A4"/>
<stop offset="1" stop-color="#0D3056"/>
</linearGradient>
<linearGradient id="paint6_linear" x1="56.8017" y1="50.023" x2="56.8017" y2="94.1867" gradientUnits="userSpaceOnUse">
<stop offset="7.68931e-07" stop-color="#F9F9FA"/>
<stop offset="1" stop-color="#9396AB"/>
</linearGradient>
<linearGradient id="paint7_linear" x1="155.416" y1="47.4709" x2="134.754" y2="26.6911" gradientUnits="userSpaceOnUse">
<stop offset="8.93758e-07" stop-color="#003772"/>
<stop offset="1" stop-color="#1D2141"/>
</linearGradient>
<linearGradient id="paint8_linear" x1="162.105" y1="62.1831" x2="162.105" y2="88.0634" gradientUnits="userSpaceOnUse">
<stop offset="7.68931e-07" stop-color="#F9F9FA"/>
<stop offset="1" stop-color="#9396AB"/>
</linearGradient>
<linearGradient id="paint9_linear" x1="57.1451" y1="75.0253" x2="57.1451" y2="82.0965" gradientUnits="userSpaceOnUse">
<stop offset="7.68931e-07" stop-color="#0552A4"/>
<stop offset="1" stop-color="#004793"/>
</linearGradient>
<linearGradient id="paint10_linear" x1="162.448" y1="74.7855" x2="162.448" y2="81.8567" gradientUnits="userSpaceOnUse">
<stop offset="7.68931e-07" stop-color="#0552A4"/>
<stop offset="1" stop-color="#004894"/>
</linearGradient>
<clipPath id="clip0">
<rect width="193" height="93" fill="white"/>
</clipPath>
</defs>
</svg>
