<svg width="298" height="144" viewBox="0 0 298 144" fill="none" xmlns="http://www.w3.org/2000/svg">
<g clip-path="url(#clip0)">
<path d="M63.7235 125.525C63.7235 112.64 74.527 102.196 87.8537 102.196C101.18 102.196 111.984 112.64 111.984 125.525" fill="#1D2141"/>
<path d="M185.64 81.252V3.87239C185.64 1.73418 183.901 0 181.756 0H12.5531C10.4061 0 8.66431 1.7368 8.66431 3.87764V81.252H185.64Z" fill="url(#paint0_linear)"/>
<path d="M12.0164 96.5711H182.29C184.14 96.5711 185.64 95.0783 185.64 93.2339V72.4893L8.66693 66.1927V93.2313C8.6643 95.0756 10.1641 96.5711 12.0164 96.5711Z" fill="#CACBD6"/>
<path d="M185.637 91.2006H8.66431V102.033H185.637V91.2006Z" fill="#A0A4B7"/>
<path d="M8.66431 70.9939C8.66431 70.9939 90.0901 71.1015 185.719 78.8332V70.8155C185.719 70.8155 111.384 66.1954 8.66431 62.7008V70.9939Z" fill="#E1A900"/>
<path d="M195.891 101.949H13.1899V119.895H195.891V101.949Z" fill="#1D2141"/>
<path d="M223.853 51.0654L228.644 51.9706C227.079 51.5377 225.479 51.236 223.853 51.0654Z" fill="#53AF4B"/>
<path d="M223.833 51.0626L223.836 51.0653C223.842 51.0653 223.844 51.0653 223.85 51.068L223.833 51.0626Z" fill="#53AF4B"/>
<path d="M60.0584 110.584H57.4377V135.502H60.0584V110.584Z" fill="#1D2141"/>
<path d="M181.696 90.3164C235.595 91.644 274.956 113.86 274.956 113.86L297.997 112.622L296.916 94.1285C296.232 85.3343 295.532 82.9468 282.421 74.3678C276.804 70.6921 266.45 65.8228 260.212 59.2665C251.182 49.7744 243.122 41.072 241.688 39.6264C240.373 38.2989 234.711 33.1855 225.575 33.1855C213.572 33.1855 185.624 33.1855 185.624 33.1855C183.409 33.1855 181.617 34.9774 181.62 37.1865L181.63 43.0213" fill="url(#paint1_linear)"/>
<path d="M181.696 112.764C181.696 119.853 186.895 125.598 193.307 125.598L288.252 125.58C292.932 125.58 293.527 117.213 297.997 112.622L272.759 113.86L258.317 98.5572L249.303 90.3165V90.2693L181.667 73.7749L181.696 112.764Z" fill="url(#paint2_linear)"/>
<path d="M181.696 112.155C181.696 121.209 186.955 125.601 193.475 125.601H285.252C298.666 125.601 297.997 126.766 297.997 112.155H181.696Z" fill="url(#paint3_linear)"/>
<path d="M297.376 123.137H186.064C186.064 123.137 188.8 125.601 192.405 125.601C196.009 125.601 293.951 125.601 293.951 125.601C295.432 125.601 296.774 124.635 297.376 123.137Z" fill="url(#paint4_linear)"/>
<g opacity="0.33">
<path opacity="0.33" d="M297.208 123.531H186.569L185.558 122.744H297.545L297.208 123.531Z" fill="#F2F2F5"/>
</g>
<path d="M296.295 90.3164H281.124C279.864 90.3164 279.006 91.5941 279.49 92.7563L281.205 96.8858C282.047 98.9112 284.029 100.231 286.226 100.231H296.132H297.39C297.39 100.228 297.242 93.365 296.295 90.3164Z" fill="#1D2141"/>
<path d="M176.192 81.2598V3.8802C176.192 1.74199 174.452 0.0078125 172.308 0.0078125H3.10476C0.957756 0.0078125 -0.784058 1.74462 -0.784058 3.88545V81.2598H176.192Z" fill="url(#paint5_linear)"/>
<path d="M2.56801 96.5788H172.839C174.689 96.5788 176.189 95.086 176.189 93.2417V72.4997L-0.784058 66.2031V93.2417C-0.784058 95.0834 0.718322 96.5788 2.56801 96.5788Z" fill="url(#paint6_linear)"/>
<path d="M176.189 91.1193H-0.784058V101.952H176.189V91.1193Z" fill="#CACBD6"/>
<path d="M171.345 98.5545H4.83866C3.94933 98.5545 3.22577 97.8357 3.22577 96.9463C3.22577 96.0595 3.9467 95.338 4.83866 95.338H171.348C172.237 95.338 172.96 96.0569 172.96 96.9463C172.958 97.8357 172.237 98.5545 171.345 98.5545Z" fill="#A0A4B7"/>
<path d="M34.2548 87.0238C34.7227 87.0238 35.102 86.6456 35.102 86.179C35.102 85.7125 34.7227 85.3342 34.2548 85.3342C33.7868 85.3342 33.4075 85.7125 33.4075 86.179C33.4075 86.6456 33.7868 87.0238 34.2548 87.0238Z" fill="#A0A4B7"/>
<path d="M64.7155 87.0238C65.1834 87.0238 65.5627 86.6456 65.5627 86.179C65.5627 85.7125 65.1834 85.3342 64.7155 85.3342C64.2475 85.3342 63.8682 85.7125 63.8682 86.179C63.8682 86.6456 64.2475 87.0238 64.7155 87.0238Z" fill="#A0A4B7"/>
<path d="M97.1521 87.0238C97.62 87.0238 97.9994 86.6456 97.9994 86.179C97.9994 85.7125 97.62 85.3342 97.1521 85.3342C96.6842 85.3342 96.3049 85.7125 96.3049 86.179C96.3049 86.6456 96.6842 87.0238 97.1521 87.0238Z" fill="#A0A4B7"/>
<path d="M127.305 87.0238C127.773 87.0238 128.152 86.6456 128.152 86.179C128.152 85.7125 127.773 85.3342 127.305 85.3342C126.837 85.3342 126.458 85.7125 126.458 86.179C126.458 86.6456 126.837 87.0238 127.305 87.0238Z" fill="#A0A4B7"/>
<path d="M155.866 87.0238C156.334 87.0238 156.713 86.6456 156.713 86.179C156.713 85.7125 156.334 85.3342 155.866 85.3342C155.398 85.3342 155.019 85.7125 155.019 86.179C155.019 86.6456 155.398 87.0238 155.866 87.0238Z" fill="#A0A4B7"/>
<path d="M195.522 40.5683L242.586 40.5604L273.778 69.2387L201.6 69.2151C196.241 69.2125 191.897 64.8809 191.897 59.5341V44.1836C191.897 42.187 193.52 40.5683 195.522 40.5683Z" fill="url(#paint7_linear)"/>
<path d="M243.588 74.8269H244.033C244.948 74.8269 245.693 74.087 245.693 73.1714V69.3016H240.149V71.3926C240.146 73.2921 241.686 74.8269 243.588 74.8269Z" fill="#1D2141"/>
<path d="M240.146 69.3052L245.69 69.3052L245.69 66.5426L240.146 66.5426L240.146 69.3052Z" fill="#FFCC00"/>
<path d="M240.147 66.5416H245.69V64.608C245.69 64.1515 245.319 63.7816 244.862 63.7816H240.975C240.518 63.7816 240.147 64.1515 240.147 64.608V66.5416Z" fill="#FFE26F"/>
<path d="M249.3 71.3428C249.3 73.8667 247.248 75.913 244.717 75.913C242.186 75.913 240.133 73.8667 240.133 71.3428" fill="#1D2141"/>
<path d="M-0.784058 70.3983C-0.784058 70.3983 80.6049 70.5032 176.189 78.1011V70.2225C176.189 70.2225 94.5105 64.7156 -0.784058 62.2468V70.3983Z" fill="#FFCC00"/>
<path d="M181.667 70.5688C181.667 70.5688 268.121 76.6503 282.182 112.152H272.778C272.778 112.152 265.248 86.507 181.693 78.5025L181.667 70.5688Z" fill="#FFCC00"/>
<path d="M271.881 110.151C268.294 100.824 259.998 95.7367 250.466 95.7367C241.794 95.7367 232.072 100.43 228.499 109.272C226.054 115.319 226.728 122.644 230.314 122.644C238.386 122.644 269.35 122.807 269.35 122.807C269.35 122.807 276.748 122.804 271.881 110.151Z" fill="url(#paint8_linear)"/>
<path d="M226.696 125.622C226.696 111.313 237.5 99.7141 250.826 99.7141C264.153 99.7141 274.956 111.313 274.956 125.622" fill="#1D2141"/>
<path opacity="0.62" d="M191.897 72.6886V109.883C191.897 112.079 193.507 113.86 195.493 113.86H218.861C220.595 113.86 222.084 112.491 222.397 110.604L237.071 92.7091C237.415 90.6391 238.473 88.7973 240.02 87.5695C241.949 86.04 250.297 83.579 250.297 80.9555V76.1753" stroke="#F2F2F5" stroke-width="3" stroke-miterlimit="10" stroke-linecap="round"/>
<path d="M107.077 125.583C107.077 135.959 98.6414 144.373 88.2326 144.373C77.8238 144.373 69.3884 135.961 69.3884 125.583C69.3884 115.204 77.8238 106.674 88.2326 106.674C98.6414 106.674 107.077 115.206 107.077 125.583Z" fill="#2F435A"/>
<path d="M88.2352 135.754C94.1466 135.754 98.9387 130.976 98.9387 125.081C98.9387 119.187 94.1466 114.409 88.2352 114.409C82.3238 114.409 77.5317 119.187 77.5317 125.081C77.5317 130.976 82.3238 135.754 88.2352 135.754Z" fill="url(#paint9_linear)"/>
<path d="M88.2352 115.978C93.8816 115.978 98.5019 120.338 98.9071 125.866C98.9255 125.606 98.9387 125.346 98.9387 125.081C98.9387 119.189 94.1474 114.409 88.2352 114.409C82.3257 114.409 77.5317 119.186 77.5317 125.081C77.5317 125.346 77.5449 125.606 77.5633 125.866C77.9659 120.338 82.5888 115.978 88.2352 115.978Z" fill="#002F61"/>
<path d="M269.668 125.213C269.668 135.589 261.232 144.003 250.824 144.003C240.415 144.003 231.979 135.591 231.979 125.213C231.979 114.834 240.415 106.305 250.824 106.305C261.232 106.305 269.668 114.836 269.668 125.213Z" fill="#2F435A"/>
<path d="M250.826 135.384C256.738 135.384 261.53 130.606 261.53 124.712C261.53 118.817 256.738 114.039 250.826 114.039C244.915 114.039 240.123 118.817 240.123 124.712C240.123 130.606 244.915 135.384 250.826 135.384Z" fill="url(#paint10_linear)"/>
<path d="M250.826 115.605C256.473 115.605 261.093 119.965 261.498 125.493C261.517 125.234 261.53 124.974 261.53 124.709C261.53 118.816 256.739 114.036 250.826 114.036C244.917 114.036 240.123 118.814 240.123 124.709C240.123 124.974 240.136 125.234 240.154 125.493C240.557 119.965 245.18 115.605 250.826 115.605Z" fill="#002F61"/>
<path d="M7.81713 87.0238C8.28504 87.0238 8.66436 86.6456 8.66436 86.179C8.66436 85.7125 8.28504 85.3342 7.81713 85.3342C7.34923 85.3342 6.96991 85.7125 6.96991 86.179C6.96991 86.6456 7.34923 87.0238 7.81713 87.0238Z" fill="#A0A4B7"/>
</g>
<defs>
<linearGradient id="paint0_linear" x1="245.553" y1="40.6255" x2="173.847" y2="40.6255" gradientUnits="userSpaceOnUse">
<stop offset="7.68931e-07" stop-color="#002C5A"/>
<stop offset="1" stop-color="#00336A"/>
</linearGradient>
<linearGradient id="paint1_linear" x1="239.807" y1="37.6053" x2="239.807" y2="96.1999" gradientUnits="userSpaceOnUse">
<stop offset="7.68931e-07" stop-color="#0552A4"/>
<stop offset="1" stop-color="#00438A"/>
</linearGradient>
<linearGradient id="paint2_linear" x1="239.831" y1="83.4304" x2="239.831" y2="144.236" gradientUnits="userSpaceOnUse">
<stop offset="7.68931e-07" stop-color="#F9F9FA"/>
<stop offset="1" stop-color="#9396AB"/>
</linearGradient>
<linearGradient id="paint3_linear" x1="239.848" y1="155.527" x2="239.848" y2="105.839" gradientUnits="userSpaceOnUse">
<stop offset="7.68931e-07" stop-color="#888BA1"/>
<stop offset="1" stop-color="#B4B7CE"/>
</linearGradient>
<linearGradient id="paint4_linear" x1="241.72" y1="125.371" x2="241.72" y2="121.798" gradientUnits="userSpaceOnUse">
<stop stop-color="#808FA9"/>
<stop offset="1" stop-color="#B4B7CE" stop-opacity="0"/>
</linearGradient>
<linearGradient id="paint5_linear" x1="87.7042" y1="8.68071" x2="87.7042" y2="132.59" gradientUnits="userSpaceOnUse">
<stop offset="7.68931e-07" stop-color="#0552A4"/>
<stop offset="1" stop-color="#0D3056"/>
</linearGradient>
<linearGradient id="paint6_linear" x1="87.7042" y1="77.455" x2="87.7042" y2="145.837" gradientUnits="userSpaceOnUse">
<stop offset="7.68931e-07" stop-color="#F9F9FA"/>
<stop offset="1" stop-color="#9396AB"/>
</linearGradient>
<linearGradient id="paint7_linear" x1="239.969" y1="73.5032" x2="207.976" y2="41.418" gradientUnits="userSpaceOnUse">
<stop offset="8.93758e-07" stop-color="#003772"/>
<stop offset="1" stop-color="#1D2141"/>
</linearGradient>
<linearGradient id="paint8_linear" x1="250.296" y1="96.2835" x2="250.296" y2="136.356" gradientUnits="userSpaceOnUse">
<stop offset="7.68931e-07" stop-color="#F9F9FA"/>
<stop offset="1" stop-color="#9396AB"/>
</linearGradient>
<linearGradient id="paint9_linear" x1="88.2344" y1="116.168" x2="88.2344" y2="127.117" gradientUnits="userSpaceOnUse">
<stop offset="7.68931e-07" stop-color="#0552A4"/>
<stop offset="1" stop-color="#004793"/>
</linearGradient>
<linearGradient id="paint10_linear" x1="250.826" y1="115.797" x2="250.826" y2="126.746" gradientUnits="userSpaceOnUse">
<stop offset="7.68931e-07" stop-color="#0552A4"/>
<stop offset="1" stop-color="#004894"/>
</linearGradient>
<clipPath id="clip0">
<rect width="298" height="144" fill="white"/>
</clipPath>
</defs>
</svg>
