<svg width="100" height="100" viewBox="0 0 100 100" fill="none" xmlns="http://www.w3.org/2000/svg">
<path d="M25 0C21.5625 0 18.75 2.8125 18.75 6.25V93.75C18.75 97.1875 21.5625 100 25 100H87.5C90.9375 100 93.75 97.1875 93.75 93.75V25L68.75 0H25Z" fill="#E2E5E7"/>
<path d="M75 25H93.75L68.75 0V18.75C68.75 22.1875 71.5625 25 75 25Z" fill="#B0B7BD"/>
<path d="M93.75 43.75L75 25H93.75V43.75Z" fill="#CAD1D8"/>
<path d="M81.25 81.25C81.25 82.9688 79.8438 84.375 78.125 84.375H9.375C7.65625 84.375 6.25 82.9688 6.25 81.25V50C6.25 48.2812 7.65625 46.875 9.375 46.875H78.125C79.8438 46.875 81.25 48.2812 81.25 50V81.25Z" fill="#0552A4"/>
<path d="M78.125 84.375H18.75V87.5H78.125C79.8438 87.5 81.25 86.0938 81.25 84.375V81.25C81.25 82.9688 79.8438 84.375 78.125 84.375Z" fill="#CAD1D8"/>
</svg>
