<svg width="26" height="26" viewBox="0 0 26 26" fill="none" xmlns="http://www.w3.org/2000/svg">
<path d="M13 26C20.1797 26 26 20.1797 26 13C26 5.8203 20.1797 0 13 0C5.8203 0 0 5.8203 0 13C0 20.1797 5.8203 26 13 26Z" fill="url(#paint0_linear)"/>
<path d="M20.9688 10.4108C20.8792 10.135 20.6409 9.93403 20.354 9.89234L15.7445 9.22254L13.6831 5.04568C13.5548 4.78568 13.2899 4.62109 13 4.62109C12.7101 4.62109 12.4453 4.78568 12.317 5.04573L10.2556 9.22259L5.64609 9.89239C5.35918 9.93408 5.12076 10.1351 5.03118 10.4108C4.94161 10.6866 5.01636 10.9893 5.22395 11.1916L8.55941 14.4428L7.772 19.0337C7.723 19.3194 7.84045 19.6083 8.07501 19.7787C8.30962 19.9491 8.62055 19.9716 8.8772 19.8367L13 17.6692L17.1229 19.8367C17.3814 19.9726 17.6922 19.9478 17.9251 19.7787C18.1596 19.6083 18.2771 19.3195 18.2281 19.0337L17.4407 14.4428L20.7761 11.1916C20.9837 10.9892 21.0584 10.6865 20.9688 10.4108Z" fill="url(#paint1_linear)"/>
<defs>
<linearGradient id="paint0_linear" x1="13" y1="26" x2="13" y2="0" gradientUnits="userSpaceOnUse">
<stop stop-color="#FD5900"/>
<stop offset="1" stop-color="#FFDE00"/>
</linearGradient>
<linearGradient id="paint1_linear" x1="13" y1="19.9242" x2="13" y2="4.62109" gradientUnits="userSpaceOnUse">
<stop stop-color="#FFE59A"/>
<stop offset="1" stop-color="#FFFFD5"/>
</linearGradient>
</defs>
</svg>
