<svg width="31" height="31" viewBox="0 0 31 31" fill="none" xmlns="http://www.w3.org/2000/svg">
<path d="M11.3667 19.9532L12.9413 11.096H15.4016L13.8762 19.9532H11.3667Z" fill="#3C58BF"/>
<path d="M11.3667 19.9532L13.3842 11.096H15.4016L13.8762 19.9532H11.3667Z" fill="#293688"/>
<path d="M22.7826 11.1945C22.2905 10.9976 21.5032 10.8008 20.5191 10.8008C18.0588 10.8008 16.2874 12.031 16.2874 13.8024C16.2874 15.131 17.5175 15.8199 18.5016 16.2627C19.4858 16.7056 19.781 17.0008 19.781 17.3945C19.781 17.9849 18.9937 18.2802 18.3048 18.2802C17.3207 18.2802 16.7794 18.1326 15.9429 17.7881L15.5985 17.6405L15.254 19.658C15.8445 19.904 16.927 20.15 18.0588 20.15C20.6667 20.15 22.3889 18.9199 22.3889 17.05C22.3889 16.0167 21.7493 15.2294 20.2731 14.5897C19.3874 14.1468 18.8461 13.9008 18.8461 13.458C18.8461 13.0643 19.2889 12.6707 20.2731 12.6707C21.1096 12.6707 21.7001 12.8183 22.1429 13.0151L22.3889 13.1135L22.7826 11.1945Z" fill="#3C58BF"/>
<path d="M22.7826 11.1945C22.2905 10.9976 21.5032 10.8008 20.5191 10.8008C18.0588 10.8008 16.7302 12.031 16.7302 13.8024C16.7302 15.131 17.5175 15.8199 18.5016 16.2627C19.4858 16.7056 19.781 17.0008 19.781 17.3945C19.781 17.9849 18.9937 18.2802 18.3048 18.2802C17.3207 18.2802 16.7794 18.1326 15.9429 17.7881L15.5985 17.6405L15.254 19.658C15.8445 19.904 16.927 20.15 18.0588 20.15C20.6667 20.15 22.3889 18.9199 22.3889 17.05C22.3889 16.0167 21.7493 15.2294 20.2731 14.5897C19.3874 14.1468 18.8461 13.9008 18.8461 13.458C18.8461 13.0643 19.2889 12.6707 20.2731 12.6707C21.1096 12.6707 21.7001 12.8183 22.1429 13.0151L22.3889 13.1135L22.7826 11.1945Z" fill="#293688"/>
<path d="M27.0143 11.096C26.4238 11.096 25.9809 11.1452 25.7349 11.7357L22.0444 19.9532H24.7016L25.1936 18.477H28.3428L28.6381 19.9532H31L28.9333 11.096H27.0143ZM25.8825 17.0008C26.0301 16.5579 26.8667 14.3929 26.8667 14.3929C26.8667 14.3929 27.0635 13.8516 27.2111 13.5072L27.3587 14.3437C27.3587 14.3437 27.8508 16.5579 27.9492 17.05H25.8825V17.0008Z" fill="#3C58BF"/>
<path d="M27.6047 11.096C27.0143 11.096 26.5714 11.1452 26.3254 11.7357L22.0444 19.9532H24.7016L25.1936 18.477H28.3428L28.6381 19.9532H31L28.9333 11.096H27.6047ZM25.8825 17.0008C26.0793 16.5087 26.8667 14.3929 26.8667 14.3929C26.8667 14.3929 27.0635 13.8516 27.2111 13.5072L27.3587 14.3437C27.3587 14.3437 27.8508 16.5579 27.9492 17.05H25.8825V17.0008Z" fill="#293688"/>
<path d="M6.83965 17.296L6.59361 16.0167C6.15076 14.5405 4.72377 12.9167 3.14917 12.1294L5.36346 20.0024H8.0206L12.0063 11.1452H9.34917L6.83965 17.296Z" fill="#3C58BF"/>
<path d="M6.83965 17.296L6.59361 16.0167C6.15076 14.5405 4.72377 12.9167 3.14917 12.1294L5.36346 20.0024H8.0206L12.0063 11.1452H9.84123L6.83965 17.296Z" fill="#293688"/>
<path d="M0 11.096L0.442857 11.1945C3.59206 11.9325 5.75714 13.8024 6.59365 16.0167L5.70794 11.8341C5.56032 11.2437 5.11746 11.096 4.57619 11.096H0Z" fill="#FFBC00"/>
<path d="M0 11.096C3.14921 11.8341 5.75714 13.7532 6.59365 15.9675L5.75714 12.4738C5.60952 11.8833 5.11746 11.5389 4.57619 11.5389L0 11.096Z" fill="#F7981D"/>
<path d="M0 11.096C3.14921 11.8341 5.75714 13.7532 6.59365 15.9675L6.00317 14.0484C5.85556 13.4579 5.65873 12.8675 4.96984 12.6214L0 11.096Z" fill="#ED7C00"/>
<path d="M9.29995 17.0008L7.62694 15.3278L6.83963 17.1976L6.64281 15.9675C6.19995 14.4913 4.77297 12.8675 3.19836 12.0802L5.41265 19.9532H8.06979L9.29995 17.0008Z" fill="#051244"/>
<path d="M13.8761 19.9532L11.7602 17.7881L11.3666 19.9532H13.8761Z" fill="#051244"/>
<path d="M19.5349 16.9024C19.7317 17.0992 19.8301 17.2469 19.7809 17.4437C19.7809 18.0342 18.9936 18.3294 18.3047 18.3294C17.3206 18.3294 16.7793 18.1818 15.9428 17.8373L15.5984 17.6897L15.2539 19.7072C15.8444 19.9532 16.9269 20.1992 18.0587 20.1992C19.6333 20.1992 20.9126 19.7564 21.6507 18.9691L19.5349 16.9024Z" fill="#051244"/>
<path d="M22.3889 19.9532H24.7016L25.1937 18.477H28.3429L28.6381 19.9532H31L30.1635 16.3611L27.2111 13.5071L27.3588 14.2944C27.3588 14.2944 27.8508 16.5087 27.9492 17.0008H25.8826C26.0794 16.5087 26.8667 14.3929 26.8667 14.3929C26.8667 14.3929 27.0635 13.8516 27.2111 13.5071" fill="#051244"/>
</svg>
