<svg width="40" height="40" viewBox="0 0 40 40" fill="none" xmlns="http://www.w3.org/2000/svg">
<path d="M20 0L18.4363 20L20 40C31.0458 40 40 31.0458 40 20C40 8.95416 31.0458 0 20 0Z" fill="#F4F9FE"/>
<path d="M0 20C0 31.0458 8.95416 40 20 40V0C8.95416 0 0 8.95416 0 20Z" fill="#F4F9FE"/>
<path d="M18.8281 33.7222H21.1719V37.0444H18.8281V33.7222Z" fill="#FF2C52"/>
<path d="M7.11914 8.77625L8.77625 7.11914L11.1255 9.46838L9.46808 11.1255L7.11914 8.77625Z" fill="#FF2C52"/>
<path d="M28.8739 30.5316L30.5313 28.8745L32.8806 31.2238L31.2231 32.8809L28.8739 30.5316Z" fill="#FF2C52"/>
<path d="M2.95563 18.8281H6.27777V21.1719H2.95563V18.8281Z" fill="#FF2C52"/>
<path d="M33.7222 18.8281H37.0444V21.1719H33.7222V18.8281Z" fill="#FF2C52"/>
<path d="M8.77625 32.8812L7.11884 31.2238L9.46808 28.8748L11.1252 30.5319L8.77625 32.8812Z" fill="#FF2C52"/>
<path d="M30.5319 11.1258L28.8748 9.46838L31.2238 7.11945L32.8812 8.77655L30.5319 11.1258Z" fill="#FF2C52"/>
<path d="M18.8281 2.95563H21.1719V6.27777H18.8281V2.95563Z" fill="#FF2C52"/>
<path d="M18.017 15.9V25H15.911V17.59H14.091V15.9H18.017ZM23.8488 19.605C24.6462 19.735 25.2572 20.034 25.6818 20.502C26.1065 20.9613 26.3188 21.5333 26.3188 22.218C26.3188 22.7467 26.1802 23.2363 25.9028 23.687C25.6255 24.129 25.2008 24.4843 24.6288 24.753C24.0655 25.0217 23.3722 25.156 22.5488 25.156C21.9075 25.156 21.2748 25.0737 20.6508 24.909C20.0355 24.7357 19.5112 24.493 19.0778 24.181L19.8968 22.569C20.2435 22.829 20.6422 23.0327 21.0928 23.18C21.5522 23.3187 22.0202 23.388 22.4968 23.388C23.0255 23.388 23.4415 23.2883 23.7448 23.089C24.0482 22.881 24.1998 22.5907 24.1998 22.218C24.1998 21.4727 23.6322 21.1 22.4968 21.1H21.5348V19.709L23.4068 17.59H19.5328V15.9H25.9028V17.265L23.8488 19.605Z" fill="#0AA607"/>
</svg>
