<svg width="40" height="40" viewBox="0 0 40 40" fill="none" xmlns="http://www.w3.org/2000/svg">
<path d="M20 0L18.4363 20L20 40C31.0458 40 40 31.0458 40 20C40 8.95416 31.0458 0 20 0Z" fill="#F4F9FE"/>
<path d="M0 20C0 31.0458 8.95416 40 20 40V0C8.95416 0 0 8.95416 0 20Z" fill="#F4F9FE"/>
<path d="M18.8281 10.3818H21.1719V17.5082H18.8281V10.3818Z" fill="#FF9100"/>
<path d="M22.4918 18.8281H29.6182V21.1719H22.4918V18.8281Z" fill="#FF4C04"/>
<path d="M18.8281 33.7222H21.1719V37.0444H18.8281V33.7222Z" fill="#0552A4"/>
<path d="M7.11914 8.77625L8.77625 7.11914L11.1255 9.46838L9.46808 11.1255L7.11914 8.77625Z" fill="#0552A4"/>
<path d="M28.8739 30.5316L30.5313 28.8745L32.8806 31.2238L31.2231 32.8809L28.8739 30.5316Z" fill="#0552A4"/>
<path d="M2.95563 18.8281H6.27777V21.1719H2.95563V18.8281Z" fill="#0552A4"/>
<path d="M33.7222 18.8281H37.0444V21.1719H33.7222V18.8281Z" fill="#0552A4"/>
<path d="M8.77625 32.8812L7.11884 31.2238L9.46808 28.8748L11.1252 30.5319L8.77625 32.8812Z" fill="#0552A4"/>
<path d="M30.5319 11.1258L28.8748 9.46838L31.2238 7.11945L32.8812 8.77655L30.5319 11.1258Z" fill="#0552A4"/>
<path d="M18.8281 2.95563H21.1719V6.27777H18.8281V2.95563Z" fill="#0552A4"/>
<path d="M20 16.3364L18.4363 20L20 23.6636C22.02 23.6636 23.6636 22.02 23.6636 20C23.6636 17.98 22.02 16.3364 20 16.3364Z" fill="#E30000"/>
<path d="M16.3364 20C16.3364 22.02 17.98 23.6636 20 23.6636V16.3367C17.98 16.3364 16.3364 17.98 16.3364 20Z" fill="#FF4C04"/>
</svg>
