<svg width="17" height="17" viewBox="0 0 17 17" fill="none" xmlns="http://www.w3.org/2000/svg">
<path d="M8.5 0C4.98419 0 2.125 2.85919 2.125 6.375C2.125 10.7939 7.8795 16.5994 8.12387 16.8449C8.228 16.9479 8.364 17 8.5 17C8.636 17 8.772 16.9479 8.87613 16.8449C9.1205 16.5994 14.875 10.7939 14.875 6.375C14.875 2.85919 12.0158 0 8.5 0ZM8.5 15.7006C7.23138 14.3427 3.1875 9.75056 3.1875 6.375C3.1875 3.44569 5.57069 1.0625 8.5 1.0625C11.4293 1.0625 13.8125 3.44569 13.8125 6.375C13.8125 9.74738 9.76862 14.3427 8.5 15.7006Z" fill="#222222"/>
<path d="M8.5 3.1875C6.74262 3.1875 5.3125 4.61762 5.3125 6.375C5.3125 8.13238 6.74262 9.5625 8.5 9.5625C10.2574 9.5625 11.6875 8.13238 11.6875 6.375C11.6875 4.61762 10.2574 3.1875 8.5 3.1875ZM8.5 8.5C7.32806 8.5 6.375 7.54694 6.375 6.375C6.375 5.20306 7.32806 4.25 8.5 4.25C9.67194 4.25 10.625 5.20306 10.625 6.375C10.625 7.54694 9.67194 8.5 8.5 8.5Z" fill="#222222"/>
</svg>
