<svg width="24" height="24" viewBox="0 0 24 24" fill="none" xmlns="http://www.w3.org/2000/svg">
<path d="M20.3473 22.9041L18.4717 23.9685C18.3976 24.0105 18.3068 24.0105 18.2327 23.9685L16.354 22.9023C16.2798 22.8603 16.189 22.8603 16.1149 22.9023L14.2365 23.9684C14.1624 24.0105 14.0716 24.0105 13.9975 23.9684L12.1189 22.9023C12.0448 22.8603 11.954 22.8603 11.8799 22.9023L10.0015 23.9684C9.92739 24.0105 9.83659 24.0105 9.76248 23.9684L7.88411 22.9023C7.81 22.8602 7.7192 22.8603 7.64504 22.9023L5.76695 23.9684C5.69284 24.0105 5.60205 24.0105 5.52789 23.9684L3.65265 22.9041C3.57686 22.861 3.53003 22.7806 3.53003 22.6935V0.242156C3.52998 0.108422 3.6384 0 3.77214 0H20.2278C20.3616 0 20.47 0.108422 20.47 0.242156V22.6935C20.47 22.7807 20.4231 22.8611 20.3473 22.9041Z" fill="#E2EEFD"/>
<path d="M20.4699 0.242339V22.6937C20.4699 22.7809 20.423 22.8613 20.3474 22.9039L19.3125 23.4914V0.000183105H20.2278C20.3615 0.000183105 20.4699 0.108183 20.4699 0.242339Z" fill="#C7DCF2"/>
<path d="M8.27109 9.98654H7.07658C6.87647 9.98654 6.71423 10.1487 6.71423 10.3489C6.71423 10.549 6.87647 10.7112 7.07658 10.7112H8.27109C8.4712 10.7112 8.63344 10.549 8.63344 10.3489C8.63344 10.1487 8.4712 9.98654 8.27109 9.98654Z" fill="#707487"/>
<path d="M16.9234 9.98654H10.0144C9.81433 9.98654 9.6521 10.1487 9.6521 10.3489C9.6521 10.549 9.81433 10.7112 10.0144 10.7112H16.9234C17.1235 10.7112 17.2857 10.549 17.2857 10.3489C17.2857 10.1487 17.1235 9.98654 16.9234 9.98654Z" fill="#707487"/>
<path d="M8.27109 12.0279H7.07658C6.87647 12.0279 6.71423 12.1901 6.71423 12.3902C6.71423 12.5904 6.87647 12.7526 7.07658 12.7526H8.27109C8.4712 12.7526 8.63344 12.5904 8.63344 12.3902C8.63344 12.1901 8.4712 12.0279 8.27109 12.0279Z" fill="#707487"/>
<path d="M16.9234 12.0279H10.0144C9.81433 12.0279 9.6521 12.1901 9.6521 12.3902C9.6521 12.5904 9.81433 12.7526 10.0144 12.7526H16.9234C17.1235 12.7526 17.2857 12.5904 17.2857 12.3902C17.2857 12.1901 17.1235 12.0279 16.9234 12.0279Z" fill="#707487"/>
<path d="M8.27109 14.0692H7.07658C6.87647 14.0692 6.71423 14.2314 6.71423 14.4316C6.71423 14.6317 6.87647 14.7939 7.07658 14.7939H8.27109C8.4712 14.7939 8.63344 14.6317 8.63344 14.4316C8.63344 14.2314 8.4712 14.0692 8.27109 14.0692Z" fill="#707487"/>
<path d="M16.9234 14.0692H10.0144C9.81433 14.0692 9.6521 14.2314 9.6521 14.4316C9.6521 14.6317 9.81433 14.7939 10.0144 14.7939H16.9234C17.1235 14.7939 17.2857 14.6317 17.2857 14.4316C17.2857 14.2314 17.1235 14.0692 16.9234 14.0692Z" fill="#707487"/>
<path d="M8.27109 16.1105H7.07658C6.87647 16.1105 6.71423 16.2727 6.71423 16.4729C6.71423 16.673 6.87647 16.8352 7.07658 16.8352H8.27109C8.4712 16.8352 8.63344 16.673 8.63344 16.4729C8.63344 16.2727 8.4712 16.1105 8.27109 16.1105Z" fill="#707487"/>
<path d="M16.9234 16.1105H10.0144C9.81433 16.1105 9.6521 16.2727 9.6521 16.4729C9.6521 16.673 9.81433 16.8352 10.0144 16.8352H16.9234C17.1235 16.8352 17.2857 16.673 17.2857 16.4729C17.2857 16.2727 17.1235 16.1105 16.9234 16.1105Z" fill="#707487"/>
<path d="M8.27109 18.1519H7.07658C6.87647 18.1519 6.71423 18.3141 6.71423 18.5143C6.71423 18.7144 6.87647 18.8766 7.07658 18.8766H8.27109C8.4712 18.8766 8.63344 18.7144 8.63344 18.5143C8.63344 18.3141 8.4712 18.1519 8.27109 18.1519Z" fill="#707487"/>
<path d="M16.9234 18.1519H10.0144C9.81433 18.1519 9.6521 18.3141 9.6521 18.5143C9.6521 18.7144 9.81433 18.8766 10.0144 18.8766H16.9234C17.1235 18.8766 17.2857 18.7144 17.2857 18.5143C17.2857 18.3141 17.1235 18.1519 16.9234 18.1519Z" fill="#707487"/>
<path d="M16.4432 4.57562H11.544C11.3439 4.57562 11.1816 4.73781 11.1816 4.93797C11.1816 5.13808 11.3439 5.30031 11.544 5.30031H16.4432C16.6433 5.30031 16.8056 5.13812 16.8056 4.93797C16.8055 4.73786 16.6433 4.57562 16.4432 4.57562Z" fill="#707487"/>
<path d="M15.1922 6.90019C15.3923 6.90019 15.5545 6.73801 15.5545 6.53785C15.5545 6.33774 15.3923 6.17551 15.1922 6.17551H11.544C11.3439 6.17551 11.1816 6.33769 11.1816 6.53785C11.1816 6.73796 11.3439 6.90019 11.544 6.90019H15.1922Z" fill="#707487"/>
<path d="M15.1922 3.07257H11.544C11.3439 3.07257 11.1816 3.23476 11.1816 3.43492C11.1816 3.63507 11.3439 3.79726 11.544 3.79726H15.1922C15.3923 3.79726 15.5545 3.63507 15.5545 3.43492C15.5545 3.23476 15.3923 3.07257 15.1922 3.07257Z" fill="#707487"/>
<path d="M9.22643 7.16064V7.1545C9.76826 7.01082 10.0741 6.58871 10.0741 5.96884C10.0741 5.16507 9.57551 4.87257 9.22643 4.73232V3.81943C9.30166 3.84343 9.35899 3.87292 9.40699 3.89762C9.47486 3.93249 9.53899 3.9654 9.62186 3.9654C9.84471 3.9654 9.98158 3.73796 9.98158 3.57493C9.98158 3.27226 9.58221 3.1171 9.21897 3.06531C9.18565 2.91549 9.04493 2.7991 8.88213 2.7991C8.70907 2.7991 8.56497 2.92004 8.53741 3.0781C7.95743 3.18624 7.61824 3.57512 7.61824 4.15028C7.61824 4.88626 8.10973 5.12537 8.53268 5.27396V6.44987C8.33337 6.40089 8.2428 6.29603 8.17183 6.21381C8.11062 6.14293 8.0268 6.04585 7.88548 6.04585C7.6796 6.04585 7.52576 6.24934 7.52576 6.43126C7.52576 6.60854 7.66263 6.80579 7.89194 6.95893C8.02713 7.04921 8.23947 7.15337 8.53418 7.19181C8.55063 7.36145 8.7004 7.49471 8.88213 7.49471C9.06879 7.49467 9.22643 7.34171 9.22643 7.16064ZM9.22127 5.60893C9.29969 5.69875 9.33926 5.81612 9.33926 5.98937C9.33926 6.15339 9.30232 6.2701 9.22127 6.3481V5.60893ZM8.54299 4.46626C8.40143 4.38423 8.34799 4.2894 8.34799 4.12454C8.34799 4.04706 8.34804 3.90638 8.54299 3.82759V4.46626Z" fill="#707487"/>
</svg>
