<svg width="32" height="31" viewBox="0 0 32 31" fill="none" xmlns="http://www.w3.org/2000/svg">
<path d="M32 15.5C32 20.6175 27.7334 24.8 22.4 24.8C17.1175 24.8 12.8 20.6175 12.8 15.5C12.8 10.3826 17.0667 6.20001 22.3493 6.20001C27.7334 6.20001 32 10.3826 32 15.5Z" fill="#FFB600"/>
<path d="M22.4 6.20001C27.6826 6.20001 32 10.3826 32 15.5C32 20.6175 27.7334 24.8 22.4 24.8C17.1175 24.8 12.8 20.6175 12.8 15.5" fill="#F7981D"/>
<path d="M22.4 6.20001C27.6826 6.20001 32 10.3826 32 15.5C32 20.6175 27.7334 24.8 22.4 24.8" fill="#FF8500"/>
<path d="M9.49841 6.20001C4.26667 6.24922 0 10.3826 0 15.5C0 20.6175 4.26667 24.8 9.6 24.8C12.0889 24.8 14.3238 23.8651 16.0508 22.3889C16.4063 22.0937 16.7111 21.7492 17.0159 21.4048H15.0349C14.781 21.1095 14.527 20.7651 14.3238 20.4699H17.727C17.9302 20.1746 18.1333 19.8302 18.2857 19.4857H13.7651C13.6127 19.1905 13.4603 18.846 13.3587 18.5016H18.6413C18.946 17.5667 19.1492 16.5826 19.1492 15.5492C19.1492 14.8603 19.0476 14.2206 18.946 13.581H13.054C13.1048 13.2365 13.2063 12.9413 13.3079 12.5968H18.5905C18.4889 12.2524 18.3365 11.9079 18.1841 11.6127H13.7143C13.8667 11.2683 14.0698 10.973 14.273 10.6286H17.6762C17.473 10.2841 17.219 9.93969 16.9143 9.64446H15.0349C15.3397 9.30001 15.6444 9.00477 16 8.70954C14.3238 7.18414 12.0381 6.29842 9.54921 6.29842C9.54921 6.20001 9.54921 6.20001 9.49841 6.20001Z" fill="#FF5050"/>
<path d="M0 15.5C0 20.6174 4.26667 24.8 9.6 24.8C12.0889 24.8 14.3238 23.8651 16.0508 22.3889C16.4063 22.0936 16.7111 21.7492 17.0159 21.4047H15.0349C14.781 21.1095 14.527 20.7651 14.3238 20.4698H17.727C17.9302 20.1746 18.1333 19.8301 18.2857 19.4857H13.7651C13.6127 19.1905 13.4603 18.846 13.3587 18.5016H18.6413C18.946 17.5667 19.1492 16.5825 19.1492 15.5492C19.1492 14.8603 19.0476 14.2206 18.946 13.5809H13.054C13.1048 13.2365 13.2063 12.9413 13.3079 12.5968H18.5905C18.4889 12.2524 18.3365 11.9079 18.1841 11.6127H13.7143C13.8667 11.2682 14.0698 10.973 14.273 10.6286H17.6762C17.473 10.2841 17.219 9.93967 16.9143 9.64443H15.0349C15.3397 9.29999 15.6444 9.00475 16 8.70951C14.3238 7.18412 12.0381 6.2984 9.54921 6.2984H9.49841" fill="#E52836"/>
<path d="M9.6 24.8C12.0889 24.8 14.3238 23.8651 16.0508 22.3889C16.4063 22.0936 16.7111 21.7492 17.0159 21.4047H15.0349C14.781 21.1095 14.527 20.7651 14.3238 20.4698H17.727C17.9302 20.1746 18.1333 19.8301 18.2857 19.4857H13.7651C13.6127 19.1905 13.4603 18.846 13.3587 18.5016H18.6413C18.946 17.5667 19.1492 16.5825 19.1492 15.5492C19.1492 14.8603 19.0476 14.2206 18.946 13.5809H13.054C13.1048 13.2365 13.2063 12.9413 13.3079 12.5968H18.5905C18.4889 12.2524 18.3365 11.9079 18.1841 11.6127H13.7143C13.8667 11.2682 14.0698 10.973 14.273 10.6286H17.6762C17.473 10.2841 17.219 9.93967 16.9143 9.64443H15.0349C15.3397 9.29999 15.6444 9.00475 16 8.70951C14.3238 7.18412 12.0381 6.2984 9.54921 6.2984H9.49841" fill="#CB2026"/>
<path d="M13.0032 17.8619L13.1555 17.0254C13.1048 17.0254 13.0032 17.0746 12.9016 17.0746C12.546 17.0746 12.4952 16.8778 12.546 16.7794L12.8508 15.0571H13.4095L13.5619 14.1222H13.054L13.1555 13.5317H12.1397C12.1397 13.5317 11.5302 16.7794 11.5302 17.173C11.5302 17.7635 11.8857 18.0095 12.3428 18.0095C12.6476 18.0095 12.9016 17.9111 13.0032 17.8619Z" fill="white"/>
<path d="M13.3588 16.2873C13.3588 17.6651 14.3238 18.0095 15.1365 18.0095C15.8984 18.0095 16.2032 17.8619 16.2032 17.8619L16.4064 16.927C16.4064 16.927 15.8477 17.173 15.3397 17.173C14.2223 17.173 14.4254 16.3857 14.4254 16.3857H16.508C16.508 16.3857 16.6604 15.746 16.6604 15.5C16.6604 14.8603 16.3048 14.073 15.1873 14.073C14.1207 13.9746 13.3588 15.0572 13.3588 16.2873ZM15.1365 14.8603C15.6953 14.8603 15.5937 15.5 15.5937 15.5492H14.4762C14.4762 15.5 14.5778 14.8603 15.1365 14.8603Z" fill="white"/>
<path d="M21.5872 17.8619L21.7904 16.7794C21.7904 16.7794 21.2825 17.0254 20.9269 17.0254C20.2158 17.0254 19.911 16.4841 19.911 15.8937C19.911 14.7127 20.5206 14.073 21.2317 14.073C21.7396 14.073 22.146 14.3683 22.146 14.3683L22.2983 13.3349C22.2983 13.3349 21.6888 13.0889 21.1301 13.0889C19.9618 13.0889 18.7936 14.073 18.7936 15.9429C18.7936 17.173 19.4031 18.0095 20.6221 18.0095C21.0285 18.0095 21.5872 17.8619 21.5872 17.8619Z" fill="white"/>
<path d="M7.41587 13.9746C6.70476 13.9746 6.19683 14.1714 6.19683 14.1714L6.04445 15.0079C6.04445 15.0079 6.50159 14.8111 7.16191 14.8111C7.51746 14.8111 7.82222 14.8603 7.82222 15.1556C7.82222 15.3524 7.77143 15.4016 7.77143 15.4016C7.77143 15.4016 7.46667 15.4016 7.31429 15.4016C6.4508 15.4016 5.48572 15.746 5.48572 16.8778C5.48572 17.7635 6.09524 17.9603 6.4508 17.9603C7.16191 17.9603 7.46667 17.5175 7.51746 17.5175L7.46667 17.9111H8.38095L8.7873 15.2048C8.7873 14.0238 7.77143 13.9746 7.41587 13.9746ZM7.61905 16.1889C7.61905 16.3365 7.51746 17.1238 6.90794 17.1238C6.60318 17.1238 6.50159 16.8778 6.50159 16.7302C6.50159 16.4841 6.65397 16.1397 7.41587 16.1397C7.56826 16.1889 7.61905 16.1889 7.61905 16.1889Z" fill="white"/>
<path d="M9.75236 17.9603C10.0063 17.9603 11.2762 18.0095 11.2762 16.681C11.2762 15.4508 10.0571 15.6968 10.0571 15.2048C10.0571 14.9587 10.2603 14.8603 10.6159 14.8603C10.7682 14.8603 11.327 14.9095 11.327 14.9095L11.4793 14.0238C11.4793 14.0238 11.1238 13.9254 10.5143 13.9254C9.75236 13.9254 8.99046 14.2207 8.99046 15.2048C8.99046 16.3365 10.2603 16.2381 10.2603 16.681C10.2603 16.9762 9.90474 17.0254 9.65077 17.0254C9.19363 17.0254 8.73649 16.8778 8.73649 16.8778L8.58411 17.7635C8.6349 17.8619 8.88887 17.9603 9.75236 17.9603Z" fill="white"/>
<path d="M30.019 13.1873L29.8158 14.5159C29.8158 14.5159 29.4095 14.0238 28.8508 14.0238C27.9365 14.0238 27.1238 15.1064 27.1238 16.3857C27.1238 17.173 27.5301 18.0095 28.3936 18.0095C29.0031 18.0095 29.3587 17.6159 29.3587 17.6159L29.3079 17.9603H30.3238L31.0857 13.2365L30.019 13.1873ZM29.5619 15.7953C29.5619 16.3365 29.3079 17.0254 28.7492 17.0254C28.3936 17.0254 28.1904 16.7302 28.1904 16.2381C28.1904 15.4508 28.546 14.9587 29.0031 14.9587C29.3587 14.9587 29.5619 15.2048 29.5619 15.7953Z" fill="white"/>
<path d="M1.87939 17.9111L2.48891 14.3683L2.5905 17.9111H3.30161L4.62224 14.3683L4.06351 17.9111H5.13018L5.94288 13.1873H4.26669L3.25081 16.0905L3.20002 13.1873H1.72701L0.914307 17.9111H1.87939Z" fill="white"/>
<path d="M17.6254 17.9111C17.9302 16.2873 17.9809 14.9587 18.6921 15.2048C18.7936 14.5651 18.946 14.3191 19.0476 14.073C19.0476 14.073 18.9968 14.073 18.8444 14.073C18.3873 14.073 18.0317 14.6635 18.0317 14.6635L18.1333 14.1222H17.1683L16.5079 17.9603H17.6254V17.9111Z" fill="white"/>
<path d="M23.9238 13.9746C23.2127 13.9746 22.7048 14.1714 22.7048 14.1714L22.5524 15.0079C22.5524 15.0079 23.0095 14.8111 23.6698 14.8111C24.0254 14.8111 24.3302 14.8603 24.3302 15.1556C24.3302 15.3524 24.2794 15.4016 24.2794 15.4016C24.2794 15.4016 23.9746 15.4016 23.8222 15.4016C22.9587 15.4016 21.9937 15.746 21.9937 16.8778C21.9937 17.7635 22.6032 17.9603 22.9587 17.9603C23.6698 17.9603 23.9746 17.5175 24.0254 17.5175L23.9746 17.9111H24.8889L25.2952 15.2048C25.346 14.0238 24.2794 13.9746 23.9238 13.9746ZM24.1778 16.1889C24.1778 16.3365 24.0762 17.1238 23.4667 17.1238C23.1619 17.1238 23.0603 16.8778 23.0603 16.7302C23.0603 16.4841 23.2127 16.1397 23.9746 16.1397C24.127 16.1889 24.127 16.1889 24.1778 16.1889Z" fill="white"/>
<path d="M26.1587 17.9111C26.4635 16.2873 26.5143 14.9587 27.2254 15.2048C27.327 14.5651 27.4794 14.3191 27.5809 14.073C27.5809 14.073 27.5301 14.073 27.3778 14.073C26.9206 14.073 26.5651 14.6635 26.5651 14.6635L26.6667 14.1222H25.7016L25.0413 17.9603H26.1587V17.9111Z" fill="white"/>
<path d="M11.4286 17.173C11.4286 17.7635 11.7841 18.0095 12.2413 18.0095C12.5968 18.0095 12.9016 17.9111 13.0032 17.8619L13.1556 17.0254C13.1048 17.0254 13.0032 17.0746 12.9016 17.0746C12.546 17.0746 12.4953 16.8778 12.546 16.7794L12.8508 15.0571H13.4095L13.5619 14.1222H13.054L13.1556 13.5317" fill="#DCE5E5"/>
<path d="M13.8667 16.2873C13.8667 17.6651 14.3238 18.0095 15.1365 18.0095C15.8984 18.0095 16.2032 17.8619 16.2032 17.8619L16.4064 16.927C16.4064 16.927 15.8477 17.173 15.3397 17.173C14.2223 17.173 14.4254 16.3857 14.4254 16.3857H16.508C16.508 16.3857 16.6604 15.746 16.6604 15.5C16.6604 14.8603 16.3048 14.073 15.1873 14.073C14.1207 13.9746 13.8667 15.0572 13.8667 16.2873ZM15.1365 14.8603C15.6953 14.8603 15.7969 15.5 15.7969 15.5492H14.4762C14.4762 15.5 14.5778 14.8603 15.1365 14.8603Z" fill="#DCE5E5"/>
<path d="M21.5874 17.8619L21.7905 16.7794C21.7905 16.7794 21.2826 17.0254 20.927 17.0254C20.2159 17.0254 19.9112 16.4841 19.9112 15.8937C19.9112 14.7127 20.5207 14.073 21.2318 14.073C21.7397 14.073 22.1461 14.3683 22.1461 14.3683L22.2985 13.3349C22.2985 13.3349 21.6889 13.0889 21.1302 13.0889C19.962 13.0889 19.3016 14.073 19.3016 15.9429C19.3016 17.173 19.4032 18.0095 20.6223 18.0095C21.0286 18.0095 21.5874 17.8619 21.5874 17.8619Z" fill="#DCE5E5"/>
<path d="M6.04445 15.0572C6.04445 15.0572 6.50159 14.8603 7.16191 14.8603C7.51746 14.8603 7.82222 14.9095 7.82222 15.2048C7.82222 15.4016 7.77143 15.4508 7.77143 15.4508C7.77143 15.4508 7.46667 15.4508 7.31429 15.4508C6.4508 15.4508 5.48572 15.7953 5.48572 16.927C5.48572 17.8127 6.09524 18.0095 6.4508 18.0095C7.16191 18.0095 7.46667 17.5667 7.51746 17.5667L7.46667 17.9603H8.38095L8.7873 15.254C8.7873 14.1222 7.77143 14.073 7.36508 14.073L6.04445 15.0572ZM8.12698 16.1889C8.12698 16.3365 7.51746 17.1238 6.90794 17.1238C6.60318 17.1238 6.50159 16.8778 6.50159 16.7302C6.50159 16.4841 6.65397 16.1397 7.41587 16.1397C7.56826 16.1889 8.12698 16.1889 8.12698 16.1889Z" fill="#DCE5E5"/>
<path d="M8.63489 17.8619C8.63489 17.8619 8.93965 17.9603 9.80314 17.9603C10.0571 17.9603 11.327 18.0095 11.327 16.681C11.327 15.4508 10.1079 15.6968 10.1079 15.2048C10.1079 14.9587 10.3111 14.8603 10.6666 14.8603C10.819 14.8603 11.3777 14.9095 11.3777 14.9095L11.5301 14.0238C11.5301 14.0238 11.1746 13.9254 10.565 13.9254C9.80314 13.9254 9.54917 14.2207 9.54917 15.2048C9.54917 16.3365 10.3111 16.2381 10.3111 16.681C10.3111 16.9762 9.95552 17.0254 9.70155 17.0254" fill="#DCE5E5"/>
<path d="M29.8159 14.5159C29.8159 14.5159 29.4095 14.0238 28.8508 14.0238C27.9365 14.0238 27.6317 15.1064 27.6317 16.3857C27.6317 17.173 27.5302 18.0095 28.3936 18.0095C29.0032 18.0095 29.3587 17.6159 29.3587 17.6159L29.3079 17.9603H30.3238L31.0857 13.2365L29.8159 14.5159ZM29.7651 15.7952C29.7651 16.3365 29.3079 17.0254 28.7492 17.0254C28.3936 17.0254 28.1905 16.7302 28.1905 16.2381C28.1905 15.4508 28.546 14.9587 29.0032 14.9587C29.3587 14.9587 29.7651 15.2048 29.7651 15.7952Z" fill="#DCE5E5"/>
<path d="M1.87939 17.9111L2.48891 14.3683L2.5905 17.9111H3.30161L4.62224 14.3683L4.06351 17.9111H5.13018L5.94288 13.1873H4.67304L3.25081 16.0905L3.20002 13.1873H2.64129L0.914307 17.9111H1.87939Z" fill="#DCE5E5"/>
<path d="M16.5587 17.9111H17.6254C17.9301 16.2873 17.9809 14.9587 18.6921 15.2048C18.7936 14.5651 18.946 14.3191 19.0476 14.073C19.0476 14.073 18.9968 14.073 18.8444 14.073C18.3873 14.073 18.0317 14.6635 18.0317 14.6635L18.1333 14.1222" fill="#DCE5E5"/>
<path d="M22.5524 15.0572C22.5524 15.0572 23.0095 14.8603 23.6698 14.8603C24.0254 14.8603 24.3302 14.9095 24.3302 15.2048C24.3302 15.4016 24.2794 15.4508 24.2794 15.4508C24.2794 15.4508 23.9746 15.4508 23.8222 15.4508C22.9587 15.4508 21.9937 15.7953 21.9937 16.927C21.9937 17.8127 22.6032 18.0095 22.9587 18.0095C23.6698 18.0095 23.9746 17.5667 24.0254 17.5667L23.9746 17.9603H24.8889L25.2952 15.254C25.2952 14.1222 24.2794 14.073 23.873 14.073L22.5524 15.0572ZM24.6349 16.1889C24.6349 16.3365 24.0254 17.1238 23.4159 17.1238C23.1111 17.1238 23.0095 16.8778 23.0095 16.7302C23.0095 16.4841 23.1619 16.1397 23.9238 16.1397C24.127 16.1889 24.6349 16.1889 24.6349 16.1889Z" fill="#DCE5E5"/>
<path d="M25.092 17.9111H26.1587C26.4635 16.2873 26.5143 14.9587 27.2254 15.2048C27.327 14.5651 27.4793 14.3191 27.5809 14.073C27.5809 14.073 27.5301 14.073 27.3778 14.073C26.9206 14.073 26.5651 14.6635 26.5651 14.6635L26.6666 14.1222" fill="#DCE5E5"/>
</svg>
