<svg width="41" height="41" viewBox="0 0 41 41" fill="none" xmlns="http://www.w3.org/2000/svg">
<path d="M0 15.3754L19.7415 27.9393C19.967 28.1059 20.2335 28.1879 20.5 28.1879C20.7665 28.1879 21.033 28.1059 21.2585 27.9393L41 15.3754L21.2688 0.256617C20.8126 -0.0841961 20.1874 -0.0841961 19.7312 0.256617L0 15.3754Z" fill="#64B5F6"/>
<path d="M33.3125 0H7.6875C6.27556 0 5.125 1.15056 5.125 2.5625V30.75C5.125 31.4573 5.699 32.0312 6.40625 32.0312H34.5938C35.301 32.0312 35.875 31.4573 35.875 30.75V2.5625C35.875 1.15056 34.727 0 33.3125 0Z" fill="white"/>
<path d="M11.5312 7.6875H29.4688C30.176 7.6875 30.75 7.1135 30.75 6.40625C30.75 5.699 30.176 5.125 29.4688 5.125H11.5312C10.824 5.125 10.25 5.699 10.25 6.40625C10.25 7.1135 10.824 7.6875 11.5312 7.6875Z" fill="#90A4AE"/>
<path d="M29.4688 10.25H11.5312C10.824 10.25 10.25 10.824 10.25 11.5312C10.25 12.2385 10.824 12.8125 11.5312 12.8125H29.4688C30.176 12.8125 30.75 12.2385 30.75 11.5312C30.75 10.824 30.176 10.25 29.4688 10.25Z" fill="#90A4AE"/>
<path d="M21.7812 15.375H11.5312C10.824 15.375 10.25 15.949 10.25 16.6562C10.25 17.3635 10.824 17.9375 11.5312 17.9375H21.7812C22.4885 17.9375 23.0625 17.3635 23.0625 16.6562C23.0625 15.949 22.4885 15.375 21.7812 15.375Z" fill="#90A4AE"/>
<path d="M21.2585 27.9389C21.033 28.1055 20.7665 28.1875 20.5 28.1875C20.2335 28.1875 19.967 28.1055 19.7415 27.9389L0 15.375V38.4375C0 39.852 1.148 41 2.5625 41H38.4375C39.852 41 41 39.852 41 38.4375V15.375L21.2585 27.9389Z" fill="#1E88E5"/>
<path d="M38.4375 41H2.5625C1.12494 41 0 39.8751 0 38.4375C0 38.0301 0.19475 37.6457 0.52275 37.4048L19.7415 24.5923C19.967 24.4258 20.2335 24.3438 20.5 24.3438C20.7665 24.3438 21.033 24.4258 21.2585 24.5923L40.4772 37.4048C40.8052 37.6457 41 38.0301 41 38.4375C41 39.8751 39.8751 41 38.4375 41Z" fill="#2196F3"/>
</svg>
