<svg width="25" height="25" viewBox="0 0 25 25" fill="none" xmlns="http://www.w3.org/2000/svg">
<path d="M12.5 0C7.32969 0 3.125 4.20469 3.125 9.375C3.125 15.8734 11.5875 24.4109 11.9469 24.7719C12.1 24.9234 12.3 25 12.5 25C12.7 25 12.9 24.9234 13.0531 24.7719C13.4125 24.4109 21.875 15.8734 21.875 9.375C21.875 4.20469 17.6703 0 12.5 0Z" fill="#0552A4"/>
<path d="M12.5 14.0625C15.0888 14.0625 17.1875 11.9638 17.1875 9.375C17.1875 6.78617 15.0888 4.6875 12.5 4.6875C9.91117 4.6875 7.8125 6.78617 7.8125 9.375C7.8125 11.9638 9.91117 14.0625 12.5 14.0625Z" fill="#FAFAFA"/>
</svg>
