<svg width="10" height="10" viewBox="0 0 10 10" fill="none" xmlns="http://www.w3.org/2000/svg">
<path d="M0.159839 2.54039L0.487403 2.21055C0.590493 2.10754 0.727648 2.05079 0.874234 2.05079C1.02074 2.05079 1.15806 2.10754 1.26115 2.21055L4.99776 5.94733L8.73869 2.2064C8.84162 2.1034 8.97893 2.04673 9.12544 2.04673C9.27195 2.04673 9.40934 2.1034 9.51235 2.2064L9.84 2.53421C10.0533 2.74738 10.0533 3.09462 9.84 3.3078L5.38598 7.77783C5.28305 7.88076 5.1459 7.95328 4.99809 7.95328H4.99638C4.8498 7.95328 4.71264 7.88068 4.60971 7.77783L0.159839 3.31991C0.0567484 3.21698 0.000163078 3.07568 0 2.92917C0 2.78259 0.0567484 2.64324 0.159839 2.54039Z" fill="#0C2C5C"/>
</svg>
