<svg width="308" height="112" viewBox="0 0 308 112" fill="none" xmlns="http://www.w3.org/2000/svg">
<path d="M0 111.593H308V109.197H0V111.593Z" fill="#CFDEED"/>
<path d="M228.502 106.743C235.731 106.743 241.613 100.927 241.613 93.7812C241.613 86.6342 235.731 80.8213 228.502 80.8213C221.272 80.8213 215.389 86.6342 215.389 93.7812C215.389 100.927 221.272 106.743 228.502 106.743Z" fill="#585351"/>
<path d="M228.502 78.1256C219.755 78.1256 212.665 85.1357 212.665 93.7813C212.665 102.428 219.755 109.434 228.502 109.434C237.248 109.434 244.338 102.428 244.338 93.7813C244.338 85.1357 237.248 78.1256 228.502 78.1256ZM228.502 83.514C234.229 83.514 238.89 88.1175 238.89 93.7813C238.89 99.442 234.229 104.049 228.502 104.049C222.774 104.049 218.114 99.442 218.114 93.7813C218.114 88.1175 222.774 83.514 228.502 83.514Z" fill="#3D3A38"/>
<path d="M118.378 106.743C125.608 106.743 131.491 100.927 131.491 93.7812C131.491 86.6342 125.608 80.8213 118.378 80.8213C111.149 80.8213 105.267 86.6342 105.267 93.7812C105.267 100.927 111.149 106.743 118.378 106.743Z" fill="#585351"/>
<path d="M118.378 78.1256C109.632 78.1256 102.544 85.1357 102.544 93.7813C102.544 102.428 109.632 109.434 118.378 109.434C127.124 109.434 134.217 102.428 134.217 93.7813C134.217 85.1357 127.124 78.1256 118.378 78.1256ZM118.378 83.514C124.107 83.514 128.766 88.1175 128.766 93.7813C128.766 99.442 124.107 104.049 118.378 104.049C112.65 104.049 107.993 99.442 107.993 93.7813C107.993 88.1175 112.65 83.514 118.378 83.514Z" fill="#373332"/>
<path d="M219.955 95.6037H278.558V67.8476C278.558 63.5058 277.281 59.2416 274.886 55.6012L258.889 31.2726C254.777 25.017 260.52 21.2168 252.973 21.2168H225.344C222.366 21.2168 219.955 23.6022 219.955 26.5474V95.6037Z" fill="#E1A200"/>
<path d="M85.4089 95.6037H194.656V5.67365C194.656 2.72994 192.242 0.344543 189.265 0.344543H90.7983C87.8235 0.344543 85.4089 2.72994 85.4089 5.67365V95.6037Z" fill="#043263"/>
<path d="M239.572 95.6037H298.175V67.8476C298.175 63.5058 296.896 59.2416 294.502 55.6012L278.504 31.2726C274.392 25.017 267.31 21.2168 259.765 21.2168H244.96C241.984 21.2168 239.572 23.6022 239.572 26.5474V95.6037Z" fill="#FFCC00"/>
<path d="M122.462 95.6037H231.709V5.67365C231.709 2.72994 229.293 0.344543 226.319 0.344543H127.852C124.875 0.344543 122.462 2.72994 122.462 5.67365V95.6037Z" fill="#07468A"/>
<path d="M79.6562 92.9384C79.6562 94.411 80.8643 95.6037 82.354 95.6037H262.21C263.698 95.6037 264.903 94.411 264.903 92.9384V87.3872C264.903 85.9192 263.698 84.7234 262.21 84.7234H82.354C80.8643 84.7234 79.6562 85.9192 79.6562 87.3872V92.9384Z" fill="#313230"/>
<path d="M253.536 59.584H281.668C283.686 59.584 284.9 57.337 283.801 55.6377L269.837 34.0368C267.342 30.1772 263.046 27.8329 258.464 27.8329H253.536V59.584Z" fill="#E0F5FD"/>
<path d="M285.247 76.7944C285.247 77.5292 285.848 78.1256 286.593 78.1256H298.175V70.9115H286.593C285.848 70.9115 285.247 71.5048 285.247 72.2427V76.7944Z" fill="#FBCE03"/>
<path d="M111.836 72.2427C111.836 71.5079 112.439 70.9115 113.184 70.9115H122.587V78.127H113.184C112.439 78.127 111.836 77.5292 111.836 76.7959V72.2427Z" fill="#D53E26"/>
<path d="M96.16 76.7959C96.16 77.5292 95.5567 78.127 94.8119 78.127H85.4089V70.9115H94.8119C95.5567 70.9115 96.16 71.5079 96.16 72.2427V76.7959Z" fill="#D53E26"/>
<path d="M135.393 76.7944C135.393 77.5292 134.789 78.1256 134.044 78.1256H122.462V70.9115H134.044C134.789 70.9115 135.393 71.5048 135.393 72.2427V76.7944Z" fill="#E74623"/>
<path d="M117.799 92.9384C117.799 94.411 119.007 95.6037 120.495 95.6037H300.351C301.84 95.6037 303.046 94.411 303.046 92.9384V87.3872C303.046 85.9192 301.84 84.7234 300.351 84.7234H120.495C119.007 84.7234 117.799 85.9192 117.799 87.3872V92.9384Z" fill="#40403F"/>
<path d="M266.827 106.741C274.055 106.741 279.937 100.927 279.937 93.7812C279.937 86.6357 274.055 80.8198 266.827 80.8198C259.597 80.8198 253.713 86.6357 253.713 93.7812C253.713 100.927 259.597 106.741 266.827 106.741Z" fill="#A2704A"/>
<path d="M266.827 78.1256C258.079 78.1256 250.99 85.1342 250.99 93.7813C250.99 102.427 258.079 109.434 266.827 109.434C275.573 109.434 282.661 102.427 282.661 93.7813C282.661 85.1342 275.573 78.1256 266.827 78.1256ZM266.827 83.511C272.552 83.511 277.213 88.1175 277.213 93.7813C277.213 99.442 272.552 104.049 266.827 104.049C261.099 104.049 256.439 99.442 256.439 93.7813C256.439 88.1175 261.099 83.511 266.827 83.511Z" fill="#373332"/>
<path d="M156.701 106.741C163.934 106.741 169.813 100.927 169.813 93.7812C169.813 86.6357 163.934 80.8198 156.701 80.8198C149.474 80.8198 143.591 86.6357 143.591 93.7812C143.591 100.927 149.474 106.741 156.701 106.741Z" fill="#A2704A"/>
<path d="M156.701 78.1256C147.957 78.1256 140.865 85.1342 140.865 93.7813C140.865 102.427 147.957 109.434 156.701 109.434C165.448 109.434 172.54 102.427 172.54 93.7813C172.54 85.1342 165.448 78.1256 156.701 78.1256ZM156.701 83.511C162.429 83.511 167.09 88.1175 167.09 93.7813C167.09 99.442 162.429 104.049 156.701 104.049C150.974 104.049 146.314 99.442 146.314 93.7813C146.314 88.1175 150.974 83.511 156.701 83.511Z" fill="#373332"/>
<path d="M256.336 93.7812C256.336 99.5074 261.031 104.152 266.827 104.152C272.621 104.152 277.316 99.5074 277.316 93.7812C277.316 88.052 272.621 83.4105 266.827 83.4105C261.031 83.4105 256.336 88.052 256.336 93.7812Z" fill="#C8C4C4"/>
<path d="M146.213 93.7812C146.213 99.5074 150.908 104.152 156.701 104.152C162.495 104.152 167.192 99.5074 167.192 93.7812C167.192 88.052 162.495 83.4105 156.701 83.4105C150.908 83.4105 146.213 88.052 146.213 93.7812Z" fill="#C8C4C4"/>
<path d="M89.8672 93.5485H106.217V86.3649H89.8672V93.5485Z" fill="#D0CECD"/>
<path d="M86.6877 80.2204H121.063V14.2021H86.6877V80.2204Z" fill="#313849"/>
<path d="M86.6877 80.2204H89.564V18.3096H86.6877V80.2204Z" fill="#284163"/>
<path d="M86.6877 29.6357H121.063V18.0053H86.6877V29.6357Z" fill="#9D9A99"/>
<path d="M86.6877 29.6357H121.063V28.3775H86.6877V29.6357Z" fill="#807E7C"/>
<path d="M86.6877 27.5697H121.063V26.3116H86.6877V27.5697Z" fill="#807E7C"/>
<path d="M86.6877 25.5053H121.063V24.2457H86.6877V25.5053Z" fill="#807E7C"/>
<path d="M86.6877 23.4394H121.063V22.1813H86.6877V23.4394Z" fill="#807E7C"/>
<path d="M86.6877 21.3735H121.063V20.1154H86.6877V21.3735Z" fill="#807E7C"/>
<path d="M86.6877 19.3091H121.063V18.051H86.6877V19.3091Z" fill="#807E7C"/>
<path d="M85.4089 18.3111H177.155C178.269 18.3111 179.174 17.4166 179.174 16.3121V12.0936C179.174 10.9891 178.269 10.0946 177.155 10.0946H85.4089V18.3111Z" fill="#CDCBCA"/>
<path d="M122.462 18.3111H194.968C196.083 18.3111 196.991 17.4166 196.991 16.3121V12.0936C196.991 10.9891 196.083 10.0946 194.968 10.0946H122.462V18.3111Z" fill="#E7E5E5"/>
<path d="M117.698 65.4059H121.063V50.5946H117.698V65.4059Z" fill="#F6DC87"/>
<path d="M112.576 80.2204H97.5897L97.5774 65.3527L112.616 65.3314L112.576 80.2204Z" fill="#DCB64D"/>
<path d="M108.108 80.2204H93.1221L93.1082 65.3528H108.095L108.108 80.2204Z" fill="#F6DC87"/>
<path d="M105.083 65.4059H120.069V50.5946H105.083V65.4059Z" fill="#DCB64D"/>
<path d="M100.614 65.4059H115.6V50.5946H100.614V65.4059Z" fill="#F6DC87"/>
<path d="M121.073 65.3573H112.585L112.576 80.2204H121.063L121.073 65.3573Z" fill="#F6DC87"/>
<path d="M108.108 51.1407H121.063V35.7802H108.108V51.1407Z" fill="#F6DC87"/>
<path d="M45.7731 107.268C46.8442 109.084 49.2004 109.699 51.0379 108.64C52.8754 107.582 53.4971 105.252 52.426 103.435C51.3564 101.621 48.9988 101.006 47.1612 102.063C45.3237 103.122 44.702 105.453 45.7731 107.268Z" fill="#A9A7A6"/>
<path d="M44.9913 107.268C46.0624 109.084 48.4201 109.699 50.2561 108.64C52.0951 107.582 52.7153 105.252 51.6458 103.435C50.5746 101.621 48.2185 101.006 46.3795 102.063C44.5435 103.122 43.9217 105.453 44.9913 107.268Z" fill="#5A6A78"/>
<path d="M46.6426 106.318C47.1812 107.233 48.3693 107.541 49.2942 107.009C50.2207 106.475 50.5331 105.302 49.9945 104.388C49.4543 103.472 48.2678 103.163 47.3428 103.696C46.4179 104.228 46.104 105.402 46.6426 106.318Z" fill="#5A6A78"/>
<path d="M40.5391 53.7817C39.7281 53.4957 35.2482 54.8071 35.2482 54.8071L34.5218 57.2609C34.5218 57.2609 35.1143 58.1113 36.4255 58.052C37.1057 58.0216 38.043 57.7599 38.8509 57.7782L41.8734 55.1935C41.541 54.6276 41.0331 53.9567 40.5391 53.7817Z" fill="#D3A986"/>
<path d="M23.546 41.8167L27.1579 52.4217C27.4996 53.2508 27.3041 52.875 27.6673 53.4501C27.6673 53.4501 28.8708 54.9486 32.5165 55.7761C33.7354 56.053 36.0423 57.2609 36.0423 57.2609L37.2073 54.6823L31.9102 51.1271C31.7517 51.1149 31.6178 50.8152 31.5809 50.66L29.1478 39.019L23.546 41.8167Z" fill="#D3A986"/>
<path d="M32.1534 44.3482C30.8637 41.9156 28.9493 37.0961 27.9166 35.3055C26.3792 32.6402 23.0397 33.2381 23.0397 33.2381L24.891 43.4795C24.891 43.4795 25.7098 45.4557 26.647 47.4029L32.1534 44.3482Z" fill="#E8B900"/>
<path d="M27.7642 38.0849C27.8289 34.1965 25.0388 33.4435 25.0388 33.4435C25.0388 33.4435 24.5432 33.2214 23.3536 33.1529L16.2806 33.3005C16.2113 33.3005 13.7967 33.7645 13.1688 33.8725C13.1688 33.8725 6.38512 36.0449 5.98961 36.2761C3.60885 37.6605 4.86925 42.5058 4.86925 42.5058L10.0632 53.8608C10.0632 53.8608 10.7265 61.1904 11.0127 61.5053C11.6683 62.2295 12.9949 62.7437 14.0676 62.9141V62.9262C14.0676 62.9262 18.172 63.4693 20.5727 63.2822C27.9489 62.7041 28.586 60.2305 28.5368 59.9293C28.1167 57.3172 28.2213 56.6524 28.2952 54.0312C28.3537 51.9348 27.7211 40.5555 27.7642 38.0849Z" fill="#FFCC00"/>
<path d="M29.9219 78.1164C29.8249 76.5343 29.8234 73.3593 29.4002 70.1189C29.1124 64.3441 27.8474 41.4455 27.8474 41.4455L26.5839 41.4424C25.5297 33.4419 21.7193 33.1818 21.7193 33.1818L19.0907 33.2411C23.8415 34.6012 23.3921 41.9125 23.3921 41.9125L16.0651 43.5053C14.797 35.6083 10.4957 34.7426 10.4957 34.7426L8.28726 35.4637C13.2627 37.7001 13.7675 42.6656 13.2596 45.3887C12.9287 47.1686 8.9721 47.0058 8.9721 47.0058C10.4033 51.766 10.5049 60.912 11.1066 65.9491L11.3405 69.3735V69.375L11.7961 82.1813L12.7287 105.836L18.392 105.678L19.4231 83.8411L20.4789 70.2802C21.6808 73.5175 22.4703 77.4318 22.855 79.5145C23.6568 83.8578 25.3343 105.363 25.3343 105.363L30.5467 105.313C30.5467 105.313 30.2604 83.5155 29.9219 78.1164Z" fill="#2C3449"/>
<path d="M18.7537 33.0525L12.7333 34.0109C12.7441 34.5783 12.8718 35.199 13.1288 35.7756C13.9906 37.7031 15.9713 38.7056 17.5548 38.0134C19.14 37.3228 19.7248 35.199 18.863 33.2715C18.8291 33.1955 18.7906 33.1255 18.7537 33.0525Z" fill="#FEFEFE"/>
<path d="M46.8411 76.551L28.1398 79.7123L27.8474 78.0221L46.5487 74.8608L46.8411 76.551Z" fill="#A9A7A6"/>
<path d="M24.8295 103.866C25.2604 103.642 25.9083 104.058 26.2622 104.147C26.9671 104.328 27.7242 104.741 28.0505 104.832C28.5168 104.96 29.1478 104.739 30.0142 103.624C30.6236 102.839 30.9176 102.713 30.9407 103.19C30.9838 104.024 31.8563 104.339 32.3704 104.487L36.4855 104.941C38.4969 105.208 38.6416 107.017 38.6678 107.928L38.6816 108.415C38.7016 109.034 38.6401 109.326 38.0906 109.341L32.0549 109.116C31.487 109.133 27.1133 109.187 27.1133 109.187L24.9064 109.044C24.4832 109.058 24.417 108.054 24.4063 107.66C24.4063 107.66 24.4047 105.401 24.434 104.649C24.4478 104.275 24.5494 104.012 24.8295 103.866Z" fill="#425C6E"/>
<path d="M38.6631 107.774L38.6647 107.823C38.7016 109.122 38.7031 109.324 38.0906 109.341L25.1773 109.218C24.6448 109.136 24.4278 108.955 24.4093 108.304L24.4062 107.624L38.6631 107.774Z" fill="#C7D2DD"/>
<path d="M22.855 58.1889C22.104 58.1889 21.6854 57.8055 21.6854 57.3324C21.6854 56.8578 22.104 56.4744 22.855 56.4744H42.4259C43.1769 56.4744 43.597 56.8578 43.597 57.3324C43.597 57.8055 43.1769 58.1889 42.4259 58.1889H22.855Z" fill="#A9A7A6"/>
<path d="M10.311 27.1514L8.27957 22.0961C8.27957 22.0961 8.27342 19.1737 9.3276 18.1757C10.7434 16.8354 12.8733 16.5433 12.8733 16.5433C12.8733 16.5433 14.3723 16.6194 17.7149 17.4211C18.192 17.5352 18.4305 18.5682 18.4305 18.5682C18.4305 18.5682 19.4262 23.0043 19.2985 24.1666C19.0753 26.1686 18.1904 30.448 18.1904 30.448L14.4415 31.2497C14.4415 31.2497 13.0934 31.7807 12.6456 31.5601C12.0177 31.2543 10.311 27.1514 10.311 27.1514Z" fill="#3C2927"/>
<path d="M12.7287 33.9911L11.1051 27.3187L17.878 28.3699L18.6183 32.2249C18.806 33.2 19.2092 35.9353 18.115 36.7416C17.0039 37.5631 15.4588 37.2543 14.991 36.9592C13.1565 35.8015 12.7287 33.9911 12.7287 33.9911Z" fill="#ECCCB4"/>
<path d="M12.6902 30.9835C13.8937 31.7001 14.7032 32.1884 15.9082 32.695C16.5468 32.9643 17.6133 33.0129 18.6367 32.3207L18.212 30.1072L17.601 28.3258L11.1051 27.3187L11.9592 30.4374C12.1377 30.6154 12.3686 30.7934 12.6902 30.9835Z" fill="#D3A986"/>
<path d="M15.2002 17.9734C19.5478 17.9384 19.5955 22.6407 19.5955 22.6407C19.5955 22.6407 19.9033 27.5302 19.8648 28.5023C19.8494 28.9176 19.5893 29.6417 19.3923 30.1042C19.1015 30.7873 18.8768 31.4232 18.5736 31.7244C17.8626 32.4257 16.2975 32.5155 15.6435 32.2264C14.5631 31.7533 13.8398 31.2969 12.761 30.6291C11.5652 29.8882 11.7068 29.3512 11.2374 28.2117C10.471 26.3496 10.0278 24.9592 9.93702 24.5591L9.92163 24.483L9.34299 21.7188C9.34299 21.7188 10.4002 18.0114 15.2002 17.9734Z" fill="#EAD4C0"/>
<path d="M31.9425 102.936L33.8323 102.593L25.5174 57.8938C25.4204 57.3781 24.9203 57.0373 24.3986 57.1316C23.8784 57.2259 23.5337 57.7204 23.6291 58.2361L31.9425 102.936Z" fill="#A9A7A6"/>
<path d="M47.9615 101.809L49.8513 101.465L41.5348 57.8938C41.4394 57.3781 40.9393 57.0373 40.4175 57.1316C39.8974 57.2259 39.5527 57.7204 39.6481 58.2361L47.9615 101.809Z" fill="#A9A7A6"/>
<path d="M55.5224 80.8791L40.4714 83.1839L38.1383 68.3025L53.1909 65.9993L55.5224 80.8791Z" fill="#DCB64D"/>
<path d="M51.0656 81.5622L36.0408 83.8745L33.6815 68.9856L48.734 66.6808L51.0656 81.5622Z" fill="#F6DC87"/>
<path d="M43.1292 67.5388L39.0402 68.1656L41.3701 83.0454L45.4591 82.4202L43.1292 67.5388Z" fill="#FDF2D0"/>
<path d="M16.6484 25.3014C16.5915 24.6716 15.8805 24.3369 15.8605 24.5621L16.0067 28.052C16.0067 28.052 16.0636 28.4277 16.8069 28.484C17.1886 28.5129 17.464 28.4445 17.6349 28.3562C17.8211 28.2604 17.8165 28.0854 17.7411 28.1052C17.2609 28.2299 16.9885 28.1022 16.9439 27.8009C16.8623 27.2152 16.7377 26.2736 16.6484 25.3014Z" fill="#D3A986"/>
<path d="M15.842 24.0753C15.842 24.2198 15.7173 24.3278 15.5696 24.3293C15.0771 24.3293 14.043 24.3354 13.5305 24.3811C13.2535 24.4054 12.3794 24.4297 12.4748 24.3293C12.6441 24.1513 12.9626 23.9156 13.4843 23.8699C14.0368 23.8212 15.1264 23.8167 15.6081 23.8167C15.745 23.8167 15.8435 23.9384 15.842 24.0753Z" fill="#423026"/>
<path d="M19.5524 23.1656C19.7956 23.2599 19.1984 23.5687 18.8029 23.6341C18.3797 23.7041 17.8734 23.8197 17.5718 23.8897C17.424 23.9247 17.2871 23.8441 17.2609 23.7193C17.2347 23.5885 17.3394 23.4546 17.4933 23.4181C17.8042 23.3466 18.3151 23.231 18.7537 23.1564C19.1261 23.0941 19.3508 23.0865 19.5524 23.1656Z" fill="#423026"/>
<path d="M17.1932 23.9597L17.9503 27.8892C17.9503 27.8892 17.6687 27.906 17.3702 28.0109C17.0701 28.1144 16.7238 23.7756 16.7238 23.7756L17.1932 23.9597Z" fill="#EAD4C0"/>
<path d="M14.7494 25.338C14.6186 25.3593 14.5031 25.3836 14.3985 25.4064V25.5373C14.4323 25.7427 14.6186 25.8812 14.8141 25.8477C15.0095 25.8142 15.1419 25.621 15.1065 25.4171L15.068 25.3045C14.9803 25.306 14.8741 25.3152 14.7494 25.338Z" fill="#46848A"/>
<path d="M15.508 25.0398L15.3634 25.0657C15.1941 25.1524 15.0571 25.2239 14.7493 25.2847C14.3584 25.3699 14.0645 25.3502 13.906 25.3121C13.8567 25.3015 13.8136 25.341 13.8044 25.3988C13.7952 25.4582 13.8337 25.519 13.8844 25.5312C14.0583 25.5707 14.3477 25.6224 14.7709 25.5327C15.1649 25.4521 15.4465 25.2984 15.5311 25.1919L15.508 25.0398Z" fill="#302B27"/>
<path d="M18.783 24.8207C18.6829 24.8283 18.5937 24.8405 18.5121 24.8527L18.5044 24.9714C18.5198 25.1601 18.6552 25.3046 18.8061 25.2924C18.9569 25.2803 19.0677 25.1175 19.0523 24.9273L19.0293 24.8223C18.9631 24.8131 18.88 24.8116 18.783 24.8207Z" fill="#46848A"/>
<path d="M19.38 24.6199L19.2677 24.6306C19.1323 24.693 19.0245 24.7447 18.7875 24.7736C18.4828 24.8131 18.2597 24.7675 18.1396 24.7219L18.0581 24.7888L18.1119 24.9181C18.2428 24.9713 18.4613 25.0444 18.7891 25.0018C19.0953 24.9637 19.3185 24.8512 19.3893 24.7599L19.38 24.6199Z" fill="#302B27"/>
<path d="M17.7657 29.6052C17.6241 29.6539 17.4548 29.7026 17.2624 29.7452C16.6592 29.8745 16.1882 29.7391 15.9805 29.6569C15.9143 29.6326 15.8928 29.555 15.9251 29.4942C15.9605 29.4318 16.0359 29.4075 16.1036 29.4318C16.2944 29.5002 16.7007 29.6052 17.2086 29.4942C17.6918 29.3922 18.0073 29.2371 18.1581 29.1473C18.2197 29.1108 18.2982 29.1245 18.3413 29.1808C18.3828 29.234 18.3797 29.3116 18.3212 29.3466C18.2197 29.4105 18.035 29.5094 17.7657 29.6052Z" fill="#D3A986"/>
<path d="M17.4287 30.1012C17.3717 30.1209 17.3055 30.1361 17.2286 30.1483C16.9962 30.1863 16.8285 30.162 16.73 30.1361C16.6669 30.1225 16.6561 30.0449 16.6838 29.9886C16.7146 29.9247 16.7854 29.8927 16.8546 29.9019C16.9316 29.9125 17.0439 29.9201 17.1901 29.8973C17.2886 29.8821 17.3609 29.8562 17.4133 29.8304C17.4856 29.7939 17.5718 29.7619 17.6441 29.8015C17.7026 29.8349 17.7272 29.9125 17.6764 29.9582C17.6241 30.0053 17.5456 30.0586 17.4287 30.1012Z" fill="#D3A986"/>
<path d="M12.2932 27.0449C12.2932 27.0449 11.4514 25.7609 11.3282 25.5692C10.7434 24.661 9.73389 24.3278 9.3076 25.1022C8.83206 25.9617 9.78005 27.3005 10.9651 28.2041C11.6283 28.7092 12.6564 28.9876 12.6517 28.3167C12.6471 27.6443 12.2932 27.0449 12.2932 27.0449Z" fill="#EAD4C0"/>
<path d="M9.66154 24.5119L11.3067 26.3724C11.3067 26.3724 11.9392 26.701 11.8438 26.2066C11.6206 25.0459 11.3944 22.6164 11.3944 22.6164C11.3944 22.6164 11.2344 21.7188 12.4932 21.7234C14.1045 21.7325 15.1572 21.6397 17.0393 21.2335C18.4413 20.9308 18.5952 19.2208 18.5952 19.2208L16.4807 17.628C16.4807 17.628 12.9965 17.2949 12.8887 17.2614C12.7795 17.2264 10.4264 18.4602 10.4264 18.4602L8.79665 20.1488C8.79665 20.1488 8.59658 21.3932 8.67045 21.6397C8.74586 21.8892 9.66154 24.5119 9.66154 24.5119Z" fill="#3C2927"/>
<path d="M5.32016 45.8938L9.31221 56.8761C9.8293 57.658 10.4987 57.6002 11.1513 57.7158C11.1513 57.7158 14.3415 58.7244 17.521 57.9744C21.9039 56.943 23.329 56.6418 23.329 56.6418L24.494 54.4389L13.6844 53.7011C13.5259 53.6905 13.392 53.5779 13.355 53.4242L10.9204 43.0961L5.32016 45.8938Z" fill="#ECCCB4"/>
<path d="M24.0554 54.4085C24.0554 54.4085 28.5337 54.0038 29.3463 54.2898C30.1589 54.5758 30.9699 58.335 30.6714 58.3836C28.3491 58.7625 28.1875 59.0606 27.3672 58.5449C26.7024 58.1281 26.5454 57.7493 25.2342 57.8086C23.9215 57.8679 23.329 56.6418 23.329 56.6418L24.0554 54.4085Z" fill="#ECCCB4"/>
<path d="M12.8533 49.6194C12.8533 49.6194 10.942 42.5089 10.2125 40.1661C9.83083 38.9384 8.32266 36.1514 6.57133 36.1514C4.88925 36.1514 3.08406 38.6691 4.33061 43.4186C5.19243 46.6925 5.48944 48.3172 6.3805 50.6387L12.8533 49.6194Z" fill="#FFE17D"/>
<path d="M9.22297 24.4419C9.22297 24.4419 9.90934 22.9298 11.1051 22.4612C11.1051 22.4612 14.4385 18.839 19.3277 20.1336C19.3277 20.1336 17.7903 14.0682 12.0746 15.8147C12.0746 15.8147 6.90069 16.8644 8.19495 22.0155C8.32268 22.5251 8.95673 23.8486 9.22297 24.4419Z" fill="#E95333"/>
<path d="M10.2694 23.0013L15.8605 22.5236C15.8605 22.5236 18.3689 20.3481 21.8654 20.9825L19.3277 20.1336C19.3277 20.1336 15.4234 17.8045 10.2694 23.0013Z" fill="#EE785C"/>
<path d="M16.3437 63.8953C16.3437 63.8953 13.3181 66.194 11.022 65.2554L11.3744 70.5647C11.3744 70.5647 19.3062 72.1058 16.3437 63.8953Z" fill="#3E537C"/>
<path d="M18.9445 104.995L21.3699 106.802C21.7593 107.321 22.3241 107.73 22.3271 108.699C22.3287 109.032 22.3287 109.259 22.3287 109.784C22.3318 110.636 22.0794 110.636 21.5469 110.639L16.7607 110.655C15.9497 110.659 14.2846 110.102 12.9749 109.416C12.4594 109.143 12.5809 108.08 12.5794 107.042L13.0103 106.893L18.9445 104.995Z" fill="#E7EBEF"/>
<path d="M12.6718 104.575C12.6718 104.575 13.0642 104.875 13.2889 105.15C14.0445 106.067 14.6555 105.386 15.6004 104.514C16.1621 103.997 16.3452 103.779 17.3025 103.48C17.9396 103.279 18.5521 103.166 18.6675 103.618C18.8368 104.275 19.6401 104.832 19.6401 104.832C19.6401 104.832 21.0375 105.652 21.4638 105.982C22.2363 106.58 22.3241 107.614 22.3241 108.358C22.3256 108.698 22.0701 108.768 21.5423 108.769L17.1763 108.786C16.1683 108.787 15.1372 108.685 13.6705 107.858L12.5794 107.178L12.5748 105.372C12.6071 104.634 12.6718 104.575 12.6718 104.575Z" fill="#527A92"/>
<path d="M41.8734 55.1935L38.3292 56.4744C39.0802 56.4927 39.6265 57.9531 40.4606 58.4125C40.7746 58.586 42.4274 57.4131 42.2443 55.9967C42.2289 55.8811 42.0888 55.5586 41.8734 55.1935Z" fill="#D3A986"/>
<path d="M62.3399 98.012L44.2818 100.867L41.3932 83.015L59.4513 80.1595L62.3399 98.012Z" fill="#D9976E"/>
<path d="M56.9921 98.8578L38.934 101.713L36.0454 83.8608L54.1035 81.0054L56.9921 98.8578Z" fill="#F3BF98"/>
<path d="M51.378 99.8847L44.999 100.919L42.0134 82.907L48.3909 81.8741L51.378 99.8847Z" fill="#F4DBC9"/>
<path d="M31.153 103.982C31.2993 104.805 32.0903 105.354 32.9213 105.209L64.9761 100.282C65.8087 100.137 66.3658 99.3538 66.2181 98.5323C66.0734 97.7092 65.2809 97.1601 64.4498 97.3046L32.3934 102.232C31.5624 102.377 31.0068 103.159 31.153 103.982Z" fill="#5A6A78"/>
<path d="M31.1377 103.874C31.2223 104.703 31.9718 105.308 32.8105 105.224L55.2546 101.774C56.0964 101.69 56.6612 100.849 56.575 100.02C56.4904 99.1879 55.8117 98.6783 54.9714 98.762L32.5042 102.217C31.664 102.301 31.053 103.041 31.1377 103.874Z" fill="#BFBCBC"/>
<path d="M35.2097 108.419C36.2808 110.236 38.6385 110.85 40.4745 109.791C42.312 108.734 42.9337 106.403 41.8641 104.587C40.793 102.772 38.4354 102.156 36.5978 103.215C34.7603 104.272 34.1401 106.603 35.2097 108.419Z" fill="#5A6A78"/>
<path d="M34.4295 108.419C35.5006 110.236 37.8567 110.85 39.6942 109.791C41.5317 108.734 42.1535 106.403 41.0824 104.587C40.0128 102.772 37.6551 102.156 35.8176 103.215C33.9801 104.272 33.3584 106.603 34.4295 108.419Z" fill="#484543"/>
<path d="M36.0808 107.468C36.6194 108.384 37.8059 108.693 38.7324 108.161C39.6573 107.627 39.9713 106.452 39.4326 105.538C38.8924 104.624 37.7059 104.313 36.7794 104.847C35.8545 105.38 35.5406 106.553 36.0808 107.468Z" fill="#5A6A78"/>
<path d="M140.753 59.018C141.083 59.1647 141.34 59.381 141.523 59.667C141.714 59.9457 141.809 60.2647 141.809 60.624C141.809 61.1373 141.626 61.5883 141.259 61.977C140.892 62.3657 140.401 62.6663 139.785 62.879C139.176 63.0917 138.516 63.198 137.805 63.198C137.262 63.198 136.727 63.132 136.199 63C135.671 62.8753 135.176 62.681 134.714 62.417L135.671 60.899C135.986 61.075 136.331 61.2107 136.705 61.306C137.086 61.4013 137.46 61.449 137.827 61.449C138.348 61.449 138.78 61.361 139.125 61.185C139.477 61.009 139.653 60.7633 139.653 60.448C139.653 60.0593 139.345 59.865 138.729 59.865H136.738L137.057 58.27H138.883C139.191 58.27 139.44 58.204 139.631 58.072C139.822 57.9327 139.917 57.7567 139.917 57.544C139.917 57.3167 139.807 57.1443 139.587 57.027C139.367 56.9023 139.07 56.84 138.696 56.84C138.381 56.84 138.036 56.8877 137.662 56.983C137.295 57.071 136.932 57.1993 136.573 57.368L136.254 55.718C137.178 55.3147 138.102 55.113 139.026 55.113C139.613 55.113 140.148 55.1973 140.632 55.366C141.116 55.5273 141.497 55.762 141.776 56.07C142.055 56.3707 142.194 56.7263 142.194 57.137C142.194 57.5403 142.062 57.9107 141.798 58.248C141.541 58.5853 141.193 58.842 140.753 59.018ZM148.244 61.504H144.966L144.075 63H141.776L146.715 55.3H148.86L150.719 63H148.552L148.244 61.504ZM147.914 59.898L147.397 57.401L145.923 59.898H147.914ZM159.016 58.094C159.441 58.094 159.841 58.182 160.215 58.358C160.589 58.534 160.89 58.7907 161.117 59.128C161.344 59.458 161.458 59.854 161.458 60.316C161.458 60.888 161.319 61.3903 161.04 61.823C160.761 62.2483 160.376 62.5783 159.885 62.813C159.401 63.0403 158.847 63.154 158.224 63.154C157.593 63.154 157.036 63.0367 156.552 62.802C156.075 62.56 155.701 62.2043 155.43 61.735C155.159 61.2657 155.023 60.6937 155.023 60.019C155.023 59.227 155.195 58.4607 155.54 57.72C155.885 56.972 156.416 56.356 157.135 55.872C157.861 55.388 158.752 55.146 159.808 55.146C160.27 55.146 160.703 55.1973 161.106 55.3C161.509 55.3953 161.839 55.531 162.096 55.707L161.106 57.247C160.739 56.9977 160.266 56.873 159.687 56.873C159.086 56.873 158.598 57.0307 158.224 57.346C157.85 57.654 157.59 58.072 157.443 58.6C157.846 58.2627 158.371 58.094 159.016 58.094ZM158.202 61.603C158.517 61.603 158.781 61.5077 158.994 61.317C159.207 61.119 159.313 60.855 159.313 60.525C159.313 60.2537 159.225 60.041 159.049 59.887C158.873 59.733 158.635 59.656 158.334 59.656C158.004 59.656 157.733 59.7513 157.52 59.942C157.307 60.1327 157.201 60.382 157.201 60.69C157.201 60.954 157.289 61.174 157.465 61.35C157.641 61.5187 157.887 61.603 158.202 61.603ZM165.06 63.154C164.172 63.154 163.468 62.8937 162.948 62.373C162.434 61.845 162.178 61.1153 162.178 60.184C162.178 59.2453 162.35 58.3947 162.695 57.632C163.047 56.862 163.534 56.257 164.158 55.817C164.781 55.3697 165.485 55.146 166.27 55.146C167.157 55.146 167.857 55.41 168.371 55.938C168.891 56.4587 169.152 57.1847 169.152 58.116C169.152 59.0547 168.976 59.909 168.624 60.679C168.279 61.4417 167.795 62.0467 167.172 62.494C166.548 62.934 165.844 63.154 165.06 63.154ZM165.269 61.372C165.621 61.372 165.925 61.1997 166.182 60.855C166.438 60.5103 166.633 60.0887 166.765 59.59C166.897 59.0913 166.963 58.6183 166.963 58.171C166.963 57.7457 166.882 57.434 166.721 57.236C166.567 57.0307 166.347 56.928 166.061 56.928C165.709 56.928 165.404 57.1003 165.148 57.445C164.891 57.7897 164.697 58.2113 164.565 58.71C164.433 59.2087 164.367 59.6817 164.367 60.129C164.367 60.9577 164.667 61.372 165.269 61.372ZM183.161 55.3L181.632 63H179.63L180.422 58.93L177.859 62.241H176.891L175.494 58.93L174.691 63H172.689L174.229 55.3H176L177.804 59.755L181.302 55.3H183.161ZM184.821 55.3H186.966L186.031 59.821L190.112 55.3H192.191L190.651 63H188.506L189.441 58.49L185.36 63H183.281L184.821 55.3ZM201.159 55.3L199.619 63H197.441L198.035 60.008H195.076L194.482 63H192.304L193.844 55.3H196.022L195.45 58.182H198.409L198.981 55.3H201.159ZM210.14 55.3L205.762 61.317C205.307 61.9403 204.816 62.4097 204.288 62.725C203.76 63.033 203.213 63.187 202.649 63.187C202.172 63.187 201.706 63.0843 201.252 62.879L201.956 61.328C202.183 61.394 202.399 61.427 202.605 61.427C203.089 61.427 203.514 61.207 203.881 60.767L203.925 60.723L202.066 55.3H204.321L205.377 58.985L207.973 55.3H210.14ZM216.701 57.027H214.303L213.137 63H210.992L212.158 57.027H209.837L210.178 55.3H217.042L216.701 57.027Z" fill="white"/>
<path d="M143.789 40.3L142.249 48H141.171L142.502 41.257H138.036L136.705 48H135.616L137.156 40.3H143.789ZM147.257 48.066C146.707 48.066 146.227 47.9633 145.816 47.758C145.406 47.5453 145.087 47.2483 144.859 46.867C144.632 46.4857 144.518 46.0457 144.518 45.547C144.518 44.8943 144.665 44.3077 144.958 43.787C145.252 43.2663 145.659 42.8593 146.179 42.566C146.7 42.2653 147.287 42.115 147.939 42.115C148.489 42.115 148.97 42.2177 149.38 42.423C149.791 42.6283 150.106 42.9217 150.326 43.303C150.554 43.677 150.667 44.117 150.667 44.623C150.667 45.2757 150.521 45.866 150.227 46.394C149.934 46.9147 149.527 47.3253 149.006 47.626C148.493 47.9193 147.91 48.066 147.257 48.066ZM147.323 47.142C147.756 47.142 148.145 47.0393 148.489 46.834C148.841 46.6213 149.113 46.328 149.303 45.954C149.501 45.58 149.6 45.1547 149.6 44.678C149.6 44.1573 149.45 43.754 149.149 43.468C148.849 43.182 148.42 43.039 147.862 43.039C147.43 43.039 147.041 43.1453 146.696 43.358C146.352 43.5633 146.08 43.853 145.882 44.227C145.684 44.601 145.585 45.0263 145.585 45.503C145.585 46.0163 145.736 46.4197 146.036 46.713C146.344 46.999 146.773 47.142 147.323 47.142ZM156.789 47.076H157.68L157.229 49.353H156.239L156.503 48H151.63L151.355 49.353H150.365L150.816 47.076H151.08C151.469 47.054 151.788 46.7827 152.037 46.262C152.294 45.734 152.539 45.0153 152.774 44.106L153.236 42.17H157.768L156.789 47.076ZM153.72 44.26C153.529 45.0153 153.346 45.624 153.17 46.086C152.994 46.5407 152.774 46.8707 152.51 47.076H155.733L156.525 43.094H153.995L153.72 44.26ZM165.568 42.17L164.413 48H163.401L163.544 47.285C163.28 47.5343 162.972 47.7287 162.62 47.868C162.275 48 161.898 48.066 161.487 48.066C160.988 48.066 160.545 47.967 160.156 47.769C159.767 47.5637 159.463 47.2703 159.243 46.889C159.023 46.5077 158.913 46.0603 158.913 45.547C158.913 44.887 159.056 44.2967 159.342 43.776C159.628 43.2553 160.02 42.8483 160.519 42.555C161.025 42.2617 161.59 42.115 162.213 42.115C162.712 42.115 163.137 42.203 163.489 42.379C163.848 42.555 164.123 42.8153 164.314 43.16L164.512 42.17H165.568ZM161.718 47.142C162.151 47.142 162.539 47.0393 162.884 46.834C163.236 46.6213 163.507 46.328 163.698 45.954C163.896 45.58 163.995 45.1547 163.995 44.678C163.995 44.1573 163.845 43.754 163.544 43.468C163.243 43.182 162.814 43.039 162.257 43.039C161.824 43.039 161.436 43.1453 161.091 43.358C160.746 43.5633 160.475 43.853 160.277 44.227C160.079 44.601 159.98 45.0263 159.98 45.503C159.98 46.0163 160.13 46.4197 160.431 46.713C160.739 46.999 161.168 47.142 161.718 47.142ZM172.271 42.17L171.105 48H170.049L170.511 45.69C169.888 45.954 169.261 46.086 168.63 46.086C167.992 46.086 167.501 45.9577 167.156 45.701C166.812 45.4443 166.639 45.0593 166.639 44.546C166.639 44.3993 166.658 44.2233 166.694 44.018L167.057 42.17H168.113L167.739 44.04C167.717 44.15 167.706 44.2563 167.706 44.359C167.706 44.931 168.091 45.217 168.861 45.217C169.419 45.217 170.027 45.0777 170.687 44.799L171.215 42.17H172.271ZM179.866 42.17L178.711 48H177.699L177.842 47.285C177.578 47.5343 177.27 47.7287 176.918 47.868C176.573 48 176.195 48.066 175.785 48.066C175.286 48.066 174.842 47.967 174.454 47.769C174.065 47.5637 173.761 47.2703 173.541 46.889C173.321 46.5077 173.211 46.0603 173.211 45.547C173.211 44.887 173.354 44.2967 173.64 43.776C173.926 43.2553 174.318 42.8483 174.817 42.555C175.323 42.2617 175.887 42.115 176.511 42.115C177.009 42.115 177.435 42.203 177.787 42.379C178.146 42.555 178.421 42.8153 178.612 43.16L178.81 42.17H179.866ZM176.016 47.142C176.448 47.142 176.837 47.0393 177.182 46.834C177.534 46.6213 177.805 46.328 177.996 45.954C178.194 45.58 178.293 45.1547 178.293 44.678C178.293 44.1573 178.142 43.754 177.842 43.468C177.541 43.182 177.112 43.039 176.555 43.039C176.122 43.039 175.733 43.1453 175.389 43.358C175.044 43.5633 174.773 43.853 174.575 44.227C174.377 44.601 174.278 45.0263 174.278 45.503C174.278 46.0163 174.428 46.4197 174.729 46.713C175.037 46.999 175.466 47.142 176.016 47.142Z" fill="#FFCC00"/>
</svg>
