<svg width="35" height="35" viewBox="0 0 35 35" fill="none" xmlns="http://www.w3.org/2000/svg">
<g clip-path="url(#clip0)">
<path d="M16.0955 10.0321H14.2852C12.2636 10.0321 11.272 7.58259 12.6854 6.16935C13.0949 5.75977 13.6606 5.50632 14.2852 5.50632L12.2471 1.78692C11.8066 0.982841 12.3882 0 13.3054 0H17.0753C17.9925 0 18.5741 0.982841 18.1336 1.78692L16.0955 5.50632C18.1171 5.50632 19.1087 7.95581 17.6953 9.36905C17.2858 9.77863 16.7201 10.0321 16.0955 10.0321Z" fill="#FFAA64"/>
<path d="M23.6113 34.9855C23.332 35.0053 24.543 34.9991 7.13906 34.9991C4.10832 34.9991 1.82659 32.2384 2.39835 29.262L4.37232 18.9711C5.36799 13.7832 9.90731 10.0321 15.1904 10.0321C20.4478 10.0321 25.0067 13.7545 26.0084 18.9712C26.1479 19.6985 27.9143 28.9071 27.9824 29.262C28.5463 32.198 26.3245 34.8356 23.6113 34.9855Z" fill="#FFAA64"/>
<path d="M18.188 0.73928C18.2947 0.991817 18.0827 1.26698 17.81 1.23855C17.7172 1.22882 17.9862 1.23176 13.9088 1.23176C13.462 1.23176 13.095 1.46491 12.8869 1.79687C12.7352 2.03877 12.3843 2.03734 12.2471 1.78684C11.8066 0.982615 12.3882 0 13.3054 0H17.0753C17.5968 0 18.0097 0.317632 18.188 0.73928Z" fill="#FFBD7B"/>
<path d="M16.5696 5.5561C17.508 5.75622 17.3582 7.14064 16.3987 7.14087C15.2499 7.14117 14.3325 7.98568 14.161 9.04538C14.0641 9.64421 13.3515 9.91794 12.8769 9.54019C11.1824 8.1916 12.1845 5.50632 14.3349 5.50632C16.2593 5.50632 16.2657 5.49131 16.5696 5.5561Z" fill="#B2B2B2"/>
<path d="M16.0955 5.50633C17.3453 5.50633 18.3584 6.51934 18.3584 7.7692C18.3584 9.01831 17.3446 10.0321 16.0955 10.0321C15.4404 10.0321 14.9403 10.0321 14.2852 10.0321C12.2623 10.0321 11.2727 7.58199 12.6853 6.16935C13.0949 5.75977 13.6606 5.50633 14.2852 5.50633H16.0955Z" fill="#999999"/>
<path d="M20.3172 11.297C21.5807 11.9623 21.0385 13.8826 19.6129 13.7991C14.3614 13.4914 9.21965 17.0099 8.12337 22.7223C7.45378 26.2128 6.98484 28.585 6.66479 30.2373C6.13408 32.9777 2.00592 32.3621 2.34641 29.5917C2.37567 29.3538 2.23764 30.0995 4.37228 18.9712C5.77194 11.6785 13.8244 7.87849 20.3172 11.297Z" fill="#FFBD7B"/>
<path d="M22.3561 14.3315C28.0631 14.3315 32.6899 18.9583 32.6899 24.6653C32.6899 30.3723 28.0631 34.9991 22.3561 34.9991C16.6492 34.9991 12.0223 30.3723 12.0223 24.6653C12.0223 18.9583 16.6492 14.3315 22.3561 14.3315Z" fill="#FFE773"/>
<path d="M26.9771 15.4199C28.3729 16.1189 27.8475 18.2157 26.2866 18.2156C20.8733 18.2148 15.8842 22.5428 15.9161 28.6145C15.9244 30.1761 13.823 30.701 13.1207 29.3062C9.65907 22.4315 14.7214 14.3314 22.3562 14.3315C24.0171 14.3315 25.5865 14.7235 26.9771 15.4199Z" fill="#FFEC8F"/>
<path d="M26.1849 22.5427L20.2335 28.494C19.7645 28.9646 18.9987 28.9669 18.5273 28.494C18.0559 28.0233 18.0559 27.2585 18.5273 26.7878L24.4787 20.8365C24.9494 20.3651 25.7142 20.3651 26.1849 20.8365C26.6563 21.3072 26.6563 22.0721 26.1849 22.5427Z" fill="#FF2C52"/>
<path d="M18.2723 21.6896C18.2723 20.8049 18.9919 20.0853 19.876 20.0853C20.76 20.0853 21.4796 20.8048 21.4796 21.6896C21.4796 22.5737 20.76 23.2933 19.876 23.2933C18.9919 23.2933 18.2723 22.5737 18.2723 21.6896Z" fill="#FF2C52"/>
<path d="M26.4399 27.641C26.4399 28.5257 25.7203 29.2454 24.8362 29.2454C23.9522 29.2454 23.2326 28.5258 23.2326 27.641C23.2326 26.757 23.9522 26.0374 24.8362 26.0374C25.7203 26.0374 26.4399 26.757 26.4399 27.641Z" fill="#FF2C52"/>
</g>
<defs>
<clipPath id="clip0">
<rect width="35" height="35" fill="white"/>
</clipPath>
</defs>
</svg>
