<svg width="25" height="25" viewBox="0 0 25 25" fill="none" xmlns="http://www.w3.org/2000/svg">
<path d="M21.2071 11.7501H7.41877L13.4758 6.29317C13.793 6.00742 13.8053 5.53268 13.5032 5.23268C13.2015 4.93306 12.6996 4.92106 12.382 5.20681L5.46465 11.4392C5.16532 11.7227 5 12.0992 5 12.5001C5 12.9006 5.16532 13.2775 5.47852 13.5733L12.3824 19.793C12.5358 19.9314 12.7325 20 12.9291 20C13.1384 20 13.3478 19.922 13.5036 19.7671C13.8057 19.4671 13.7934 18.9928 13.4762 18.707L7.3938 13.2501H21.2071C21.6448 13.2501 22 12.9141 22 12.5001C22 12.0861 21.6448 11.7501 21.2071 11.7501Z" fill="#0C2C5C"/>
</svg>
