<svg width="25" height="25" viewBox="0 0 25 25" fill="none" xmlns="http://www.w3.org/2000/svg">
<path d="M3.79291 11.7501H17.5812L11.5242 6.29317C11.207 6.00742 11.1947 5.53268 11.4968 5.23268C11.7985 4.93306 12.3004 4.92106 12.618 5.20681L19.5354 11.4392C19.8347 11.7227 20 12.0992 20 12.5001C20 12.9006 19.8347 13.2775 19.5215 13.5733L12.6176 19.793C12.4642 19.9314 12.2675 20 12.0709 20C11.8616 20 11.6522 19.922 11.4964 19.7671C11.1943 19.4671 11.2066 18.9928 11.5238 18.707L17.6062 13.2501H3.79291C3.35522 13.2501 3 12.9141 3 12.5001C3 12.0861 3.35522 11.7501 3.79291 11.7501Z" fill="#0C2C5C"/>
</svg>
