<svg width="45" height="101" viewBox="0 0 45 101" fill="none" xmlns="http://www.w3.org/2000/svg">
<path d="M40.4728 40.5147C39.614 40.213 34.8725 41.6006 34.8725 41.6006L34.1039 44.1982C34.1039 44.1982 34.7317 45.0972 36.1203 45.0347C36.84 45.0026 37.8308 44.7259 38.6856 44.747L41.8851 42.0102C41.5332 41.4106 40.9947 40.7 40.4728 40.5147Z" fill="#D3A986"/>
<path d="M20.8781 27.8526L24.7023 39.0756C25.0636 39.9543 24.8565 39.5556 25.2408 40.1638C25.2408 40.1638 26.5147 41.7514 30.3722 42.6269C31.6619 42.9201 34.1038 44.1982 34.1038 44.1982L35.3367 41.4684L29.7324 37.7053C29.5632 37.6936 29.4208 37.3754 29.3829 37.2128L26.8073 24.8923L20.8781 27.8526Z" fill="#D3A986"/>
<path d="M29.9902 30.5324C28.6237 27.9566 26.5978 22.8567 25.5041 20.9619C23.8775 18.1415 20.2842 18.6918 20.2842 18.6918L22.3022 29.6138C22.3022 29.6138 23.1689 31.7034 24.1622 33.7655L29.9902 30.5324Z" fill="#E8B900"/>
<path d="M25.3436 23.905C25.4124 19.7878 22.4588 18.9912 22.4588 18.9912C22.4588 18.9912 21.9353 18.7559 20.6756 18.684L13.1909 18.8396C13.1173 18.8396 10.5631 19.3313 9.89808 19.4454C9.89808 19.4454 2.71859 21.7452 2.29948 21.9899C-0.221526 23.4548 1.1141 28.582 1.1141 28.582L6.60923 40.6C6.60923 40.6 7.31381 48.356 7.61589 48.6898C8.31019 49.4551 9.71304 49.9992 10.8486 50.1813V50.1946C10.8486 50.1946 15.1916 50.77 17.7323 50.5698C25.5389 49.9586 26.2134 47.3398 26.1613 47.0217C25.716 44.2576 25.8268 43.5548 25.905 40.7805C25.9675 38.562 25.2985 26.5175 25.3436 23.905Z" fill="#FFCC00"/>
<path d="M27.6274 66.2689C27.5238 64.5953 27.523 61.2355 27.0746 57.8054C26.7709 51.694 25.4527 27.4571 25.4527 27.4571H24.0934C22.9792 18.9888 18.9865 18.7168 18.9865 18.7168L16.1642 18.7778C21.1912 20.2161 20.7159 27.9543 20.7159 27.9543L12.9623 29.6396C11.6212 21.2824 7.06866 20.3654 7.06866 20.3654L4.73111 21.1292C9.99533 23.4962 9.99375 31.6338 9.99375 31.6338C9.30419 33.4231 5.45625 33.3449 5.45625 33.3449C6.97139 38.3815 7.07894 48.0622 7.71551 53.3926L7.96145 57.0182L8.44461 70.5723L9.43151 95.6057L15.4248 95.4384L16.5161 72.3288L17.6335 57.9758C18.9051 61.4036 19.7417 65.5459 20.1482 67.7487C20.9967 72.3444 22.772 95.1046 22.772 95.1046L28.2892 95.0507C28.2892 95.0507 27.9848 71.984 27.6274 66.2689Z" fill="#2C3449"/>
<path d="M15.8076 18.5777L9.43628 19.5916C9.44814 20.1935 9.58178 20.8493 9.8546 21.4598C10.7656 23.5001 12.8635 24.5601 14.5392 23.8284C16.2156 23.0967 16.8356 20.8493 15.9238 18.8099C15.8867 18.7301 15.8463 18.6543 15.8076 18.5777Z" fill="#FEFEFE"/>
<path d="M22.2374 93.52C22.6249 93.4083 23.3809 93.7147 23.7541 93.8187C24.4959 94.0266 25.3001 94.4464 25.6465 94.5417C26.1383 94.6785 26.8073 94.4448 27.7238 93.2644C28.3699 92.4327 28.6799 92.3006 28.706 92.8048C28.7503 93.6881 29.6739 94.0219 30.218 94.1767L34.5728 94.6598C36.7024 94.9412 36.8534 96.6977 36.8811 97.6631L36.496 98.3338C36.36 98.9951 36.4098 99.3188 36.2722 99.3148L29.885 99.0772C29.2833 99.0944 24.6548 99.1515 24.6548 99.1515L22.3181 99.0014C21.8713 99.0147 21.8009 97.9547 21.7882 97.5357L21.8175 94.3502C21.8452 93.9539 22.0191 93.5841 22.2374 93.52Z" fill="#425C6E"/>
<path d="M36.8811 97.6522C36.8811 97.6522 37.0266 99.3587 36.2722 99.315L22.6051 99.186C22.0429 99.0976 21.8128 98.9061 21.7922 98.2159L21.7882 97.4974L36.8811 97.6522Z" fill="#C7D2DD"/>
<path d="M6.87333 12.3326L4.72083 6.9818C4.72083 6.9818 4.71687 3.88859 5.83187 2.83328C7.32961 1.41527 9.58333 1.10571 9.58333 1.10571C9.58333 1.10571 11.1712 1.18623 14.7092 2.03516C15.2129 2.15633 15.4652 3.24915 15.4652 3.24915C15.4652 3.24915 16.5201 7.94408 16.384 9.1737C16.1476 11.2929 15.2129 15.8213 15.2129 15.8213L11.244 16.6703C11.244 16.6703 9.8174 17.2323 9.34373 16.9994C8.67868 16.6742 6.87333 12.3326 6.87333 12.3326Z" fill="#3C2927"/>
<path d="M9.43153 19.5705L7.71317 12.5085L14.8816 13.6216L15.6645 17.7022C15.8622 18.7333 16.2884 21.6295 15.1323 22.4824C13.9556 23.3508 12.321 23.0233 11.8252 22.7114C9.88386 21.4872 9.43153 19.5705 9.43153 19.5705Z" fill="#ECCCB4"/>
<path d="M9.38961 16.3881C10.6651 17.1455 11.5208 17.6622 12.7955 18.1985C13.4716 18.4846 14.6008 18.5362 15.6826 17.8045L15.2342 15.461L14.5866 13.5763L7.71317 12.5085L8.51106 15.7916C8.70006 15.9792 9.05037 16.1872 9.38961 16.3881Z" fill="#D3A986"/>
<path d="M12.0482 2.6191C16.6482 2.58236 16.6988 7.55793 16.6988 7.55793C16.6988 7.55793 17.0238 12.7344 16.9835 13.7624C16.9684 14.2009 16.6917 14.9677 16.4837 15.4571C16.1761 16.1802 15.9373 16.854 15.617 17.1722C14.865 17.9148 13.2083 18.0086 12.5156 17.7037C11.3729 17.2027 10.6066 16.7203 9.46633 16.0129C8.19871 15.2281 8.34975 14.6598 7.85314 13.4536C7.04259 11.4845 6.57207 10.0117 6.4756 9.58959L6.45978 9.5083L5.84851 6.58236C5.84851 6.58236 6.96667 2.65975 12.0482 2.6191Z" fill="#EAD4C0"/>
<path d="M13.5791 10.3744C13.519 9.7084 12.7678 9.35428 12.7449 9.59114L12.8999 13.2863C12.8999 13.2863 12.96 13.6818 13.7468 13.7428C14.1517 13.7733 14.4443 13.6998 14.623 13.6068C14.8207 13.5052 14.8159 13.3207 14.7361 13.3426C14.2268 13.4731 13.9397 13.3379 13.8939 13.0197C13.8045 12.4006 13.6748 11.4047 13.5791 10.3744Z" fill="#D3A986"/>
<path d="M12.728 9.07689C12.728 9.22939 12.5951 9.34514 12.4393 9.34592C11.9187 9.34592 10.8223 9.35218 10.2789 9.40066C9.98775 9.42647 9.06141 9.4515 9.16266 9.34592C9.33986 9.15901 9.67844 8.90875 10.2298 8.86104C10.816 8.80865 11.9702 8.80396 12.4796 8.80396C12.6252 8.80396 12.7296 8.93299 12.728 9.07689Z" fill="#423026"/>
<path d="M16.6538 8.11373C16.9117 8.21383 16.2796 8.53992 15.8588 8.60952C15.4126 8.68459 14.8755 8.80658 14.5559 8.88009C14.4001 8.91763 14.2561 8.83317 14.2284 8.69945C14.1999 8.5626 14.3099 8.42027 14.4728 8.38196C14.8027 8.3061 15.3438 8.18411 15.8074 8.10513C16.2021 8.03944 16.4402 8.03084 16.6538 8.11373Z" fill="#423026"/>
<path d="M14.1556 8.95491L14.9575 13.1128C14.9575 13.1128 14.6594 13.1316 14.3423 13.2418C14.0267 13.352 13.6582 8.76105 13.6582 8.76105L14.1556 8.95491Z" fill="#EAD4C0"/>
<path d="M11.5691 10.4128C11.4323 10.4362 11.3105 10.462 11.1989 10.4863L11.1981 10.6239C11.2337 10.8405 11.4323 10.9883 11.6395 10.9531C11.8452 10.9171 11.9837 10.7138 11.9481 10.4972L11.9077 10.3776C11.8144 10.3791 11.7012 10.3901 11.5691 10.4128Z" fill="#46848A"/>
<path d="M12.3723 10.0977L12.2196 10.1258C12.0408 10.2157 11.8961 10.2916 11.5694 10.3581C11.1556 10.4464 10.8455 10.4261 10.677 10.387C10.6256 10.3745 10.5781 10.4152 10.5702 10.4785C10.5592 10.5411 10.6003 10.606 10.6549 10.6177C10.8384 10.6607 11.1446 10.7139 11.5923 10.6201C12.0092 10.534 12.3074 10.3722 12.3968 10.258L12.3723 10.0977Z" fill="#302B27"/>
<path d="M15.8377 9.86553C15.7317 9.87414 15.6384 9.88587 15.5514 9.89994L15.5443 10.0258C15.5601 10.2268 15.7025 10.3777 15.8623 10.3644C16.0229 10.3519 16.1399 10.1791 16.1241 9.97814L16.0996 9.86632C16.0284 9.8585 15.9414 9.85771 15.8377 9.86553Z" fill="#46848A"/>
<path d="M16.4708 9.65289L16.3513 9.66541C16.2089 9.73109 16.0942 9.78583 15.8427 9.81711C15.5207 9.85855 15.2842 9.81085 15.1584 9.76081L15.0706 9.83353L15.1283 9.96881C15.2676 10.0251 15.497 10.1025 15.8458 10.058C16.1694 10.0173 16.4059 9.89765 16.4803 9.80147L16.4708 9.65289Z" fill="#302B27"/>
<path d="M14.7629 14.9289C14.611 14.982 14.4338 15.0329 14.2297 15.0767C13.5921 15.2143 13.0937 15.072 12.8714 14.9844C12.8026 14.9586 12.7797 14.8773 12.8145 14.8131C12.8517 14.7459 12.9323 14.7193 13.002 14.7459C13.2045 14.8178 13.634 14.9289 14.1711 14.8131C14.6838 14.7044 15.0192 14.5387 15.1782 14.444C15.243 14.4073 15.3261 14.4222 15.3736 14.48C15.4163 14.5363 15.4131 14.6176 15.3506 14.6567C15.243 14.7224 15.0484 14.8288 14.7629 14.9289Z" fill="#D3A986"/>
<path d="M14.4042 15.4541C14.3449 15.4744 14.2745 15.4924 14.1946 15.5041C13.947 15.5432 13.7706 15.519 13.6646 15.4924C13.5989 15.476 13.5878 15.3954 13.6171 15.3344C13.6495 15.2672 13.7239 15.2335 13.7983 15.2429C13.8797 15.2547 13.9984 15.2625 14.1527 15.239C14.2563 15.2226 14.333 15.1952 14.3892 15.1686C14.4667 15.1303 14.5577 15.0951 14.6344 15.1366C14.6953 15.1718 14.7207 15.2539 14.6684 15.3024C14.6131 15.3524 14.5284 15.4095 14.4042 15.4541Z" fill="#D3A986"/>
<path d="M8.97047 12.22C8.97047 12.22 8.07768 10.8599 7.94879 10.6574C7.3304 9.69671 6.26206 9.34495 5.81053 10.1634C5.3076 11.0725 6.3103 12.4913 7.56447 13.4465C8.26747 13.982 9.35399 14.2751 9.34846 13.5654C9.34451 12.854 8.97047 12.22 8.97047 12.22Z" fill="#EAD4C0"/>
<path d="M45 47.1045L23.0922 50.4573L19.699 28.7993L41.6068 25.4473L45 47.1045Z" fill="#DCB64D"/>
<path d="M38.5117 48.0973L16.6039 51.4509L13.2115 29.7944L35.12 26.4393L38.5117 48.0973Z" fill="#F6DC87"/>
<path d="M6.18457 9.53954L7.92586 11.5071C7.92586 11.5071 8.59565 11.8565 8.49523 11.3328C8.25957 10.1032 8.01839 7.53289 8.01839 7.53289C8.01839 7.53289 7.85074 6.58311 9.1832 6.5878C10.8865 6.59797 12.0008 6.49947 13.9943 6.07031C15.477 5.74903 15.6399 3.93937 15.6399 3.93937L13.4012 2.25322C13.4012 2.25322 9.71382 1.90145 9.60074 1.86471C9.48607 1.82797 6.99512 3.13499 6.99512 3.13499L5.26963 4.92198C5.26963 4.92198 5.05771 6.23916 5.13678 6.49947C5.21586 6.76369 6.18457 9.53954 6.18457 9.53954Z" fill="#3C2927"/>
<path d="M1.58936 32.1677L5.81607 43.7894C6.36409 44.618 6.87098 45.1534 7.56053 45.2754C7.56053 45.2754 8.43039 46.3143 14.5036 47.5384C19.1755 48.4812 20.6487 48.9127 20.6487 48.9127L21.8824 46.58L10.6446 40.8282C10.4761 40.8165 10.1322 40.2998 10.0934 40.1364L7.51783 29.2074L1.58936 32.1677Z" fill="#ECCCB4"/>
<path d="M21.4181 46.5479C21.4181 46.5479 24.7157 45.9413 25.6093 47.2171C27.2731 49.588 33.8903 48.2466 28.4197 50.7559C26.7456 51.5236 25.9272 51.3422 24.9229 51.1241C24.1455 50.9561 23.694 50.8107 22.6652 50.3455C21.4007 49.7741 20.6487 48.9126 20.6487 48.9126L21.4181 46.5479Z" fill="#ECCCB4"/>
<path d="M9.94791 36.2036C9.94791 36.2036 7.5898 28.718 6.818 26.2384C6.41549 24.9392 4.81811 21.9899 2.96452 21.9899C1.18526 21.9899 -1.10009 24.7641 0.59534 29.6803C1.73723 32.9994 1.85664 34.881 2.79846 37.3379L9.94791 36.2036Z" fill="#FFE17D"/>
<path d="M5.71959 9.46527C5.71959 9.46527 6.44711 7.86434 7.71315 7.36873C7.71315 7.36873 11.2408 3.53602 16.4157 4.90557C16.4157 4.90557 14.7883 -1.51381 8.74038 0.33415C8.74038 0.33415 3.26264 1.44574 4.63306 6.89736C4.76828 7.43674 5.43886 8.83756 5.71959 9.46527Z" fill="#E95333"/>
<path d="M6.82986 7.94098L12.7449 7.43521C12.7449 7.43521 15.4011 5.13228 19.1004 5.80299L16.4157 4.90558C16.4157 4.90558 12.2823 2.44084 6.82986 7.94098Z" fill="#EE785C"/>
<path d="M13.2573 51.218C13.2573 51.218 10.0547 53.6514 7.62381 52.6586L7.99785 58.2776C7.99785 58.2776 16.3912 59.909 13.2573 51.218Z" fill="#3E537C"/>
<path d="M16.01 94.7153L18.5769 96.6282C18.9881 97.1777 19.5851 97.6116 19.5891 98.6348C19.5899 98.9881 19.5899 99.2266 19.5923 99.7839C19.593 100.684 19.3281 100.684 18.7635 100.688L13.6986 100.706C12.8398 100.709 11.0779 100.119 9.69248 99.3931C9.14605 99.1062 9.27494 97.9782 9.27336 96.8814L9.72885 96.7243L16.01 94.7153Z" fill="#E7EBEF"/>
<path d="M9.36983 94.2713C9.36983 94.2713 9.71066 94.6106 9.94947 94.8998C10.7474 95.8715 11.4709 95.1296 12.4705 94.2056C13.0644 93.6592 13.2581 93.4278 14.2727 93.1105C14.9456 92.8986 15.5941 92.7798 15.7166 93.259C15.8938 93.9516 16.7454 94.5418 16.7454 94.5418L18.6749 95.7597C19.4285 96.4663 19.5851 97.4872 19.5867 98.2752C19.5875 98.634 19.3162 98.7083 18.7595 98.7098L14.1374 98.7263C13.0707 98.7294 11.9794 98.6207 10.4279 97.7452L9.27336 97.0245L9.26782 95.114C9.30183 94.3346 9.36983 94.2713 9.36983 94.2713Z" fill="#527A92"/>
<path d="M44.025 40.8134L44.1499 40.6C44.8379 39.4204 44.7446 37.9375 43.9103 36.8525L43.2619 36.0074C43.065 36.9002 41.6676 37.3192 40.9132 38.2087C40.627 38.5441 41.6795 40.79 43.4524 40.8978C43.5987 40.9072 43.5291 40.983 44.025 40.8134Z" fill="#D3A986"/>
</svg>
