<svg width="104" height="102" viewBox="0 0 104 102" fill="none" xmlns="http://www.w3.org/2000/svg">
<path d="M40.4728 40.8658C39.614 40.564 34.8725 41.9516 34.8725 41.9516L34.1039 44.5492C34.1039 44.5492 34.7317 45.4482 36.1203 45.3856C36.84 45.3536 37.8308 45.0768 38.6856 45.0979L41.8851 42.3612C41.5332 41.7616 40.9947 41.051 40.4728 40.8658Z" fill="#D3A986"/>
<path d="M20.8781 28.2037L24.7023 39.4267C25.0636 40.3053 24.8565 39.9066 25.2408 40.5148C25.2408 40.5148 26.5147 42.1024 30.3722 42.978C31.6619 43.2711 34.1038 44.5492 34.1038 44.5492L35.3367 41.8195L29.7324 38.0563C29.5632 38.0446 29.4208 37.7264 29.3829 37.5638L26.8073 25.2433L20.8781 28.2037Z" fill="#D3A986"/>
<path d="M29.9902 30.8834C28.6237 28.3077 26.5978 23.2078 25.5041 21.313C23.8775 18.4926 20.2842 19.0429 20.2842 19.0429L22.3022 29.9649C22.3022 29.9649 23.1689 32.0544 24.1622 34.1166L29.9902 30.8834Z" fill="#E8B900"/>
<path d="M25.3436 24.2561C25.4124 20.1388 22.4588 19.3422 22.4588 19.3422C22.4588 19.3422 21.9353 19.107 20.6756 19.035L13.1909 19.1906C13.1173 19.1906 10.5631 19.6823 9.89808 19.7964C9.89808 19.7964 2.71859 22.0962 2.29948 22.3409C-0.221526 23.8058 1.1141 28.933 1.1141 28.933L6.60923 40.951C6.60923 40.951 7.31381 48.7071 7.61589 49.0409C8.31019 49.8062 9.71304 50.3503 10.8486 50.5324V50.5457C10.8486 50.5457 15.1916 51.121 17.7323 50.9209C25.5389 50.3096 26.2134 47.6909 26.1613 47.3727C25.716 44.6086 25.8268 43.9059 25.905 41.1316C25.9675 38.9131 25.2985 26.8685 25.3436 24.2561Z" fill="#FFCC00"/>
<path d="M27.6274 66.62C27.5238 64.9463 27.523 61.5866 27.0746 58.1564C26.7709 52.045 25.4527 27.8082 25.4527 27.8082H24.0934C22.9792 19.3399 18.9865 19.0679 18.9865 19.0679L16.1642 19.1288C21.1912 20.5672 20.7159 28.3053 20.7159 28.3053L12.9623 29.9907C11.6212 21.6334 7.06866 20.7165 7.06866 20.7165L4.73111 21.4802C9.99533 23.8472 9.99375 31.9848 9.99375 31.9848C9.30419 33.7742 5.45625 33.696 5.45625 33.696C6.97139 38.7325 7.07894 48.4132 7.71551 53.7437L7.96145 57.3692L8.44461 70.9233L9.43151 95.9567L15.4248 95.7894L16.5161 72.6798L17.6335 58.3268C18.9051 61.7546 19.7417 65.8969 20.1482 68.0998C20.9967 72.6954 22.772 95.4556 22.772 95.4556L28.2892 95.4017C28.2892 95.4017 27.9848 72.3351 27.6274 66.62Z" fill="#2C3449"/>
<path d="M15.8076 18.9287L9.43628 19.9426C9.44814 20.5445 9.58178 21.2004 9.8546 21.8109C10.7656 23.8512 12.8635 24.9112 14.5392 24.1795C16.2156 23.4478 16.8356 21.2004 15.9238 19.1609C15.8867 19.0811 15.8463 19.0053 15.8076 18.9287Z" fill="#FEFEFE"/>
<path d="M22.2374 93.8711C22.6249 93.7593 23.3809 94.0658 23.7541 94.1697C24.4959 94.3777 25.3001 94.7974 25.6465 94.8928C26.1383 95.0296 26.8073 94.7959 27.7238 93.6155C28.3699 92.7838 28.6799 92.6517 28.706 93.1559C28.7503 94.0392 29.6739 94.373 30.218 94.5278L34.5728 95.0109C36.7024 95.2923 36.8534 97.0488 36.8811 98.0142L36.496 98.6849C36.36 99.3462 36.4098 99.6698 36.2722 99.6659L29.885 99.4283C29.2833 99.4455 24.6548 99.5025 24.6548 99.5025L22.3181 99.3525C21.8713 99.3657 21.8009 98.3057 21.7882 97.8868L21.8175 94.7013C21.8452 94.305 22.0191 93.9352 22.2374 93.8711Z" fill="#425C6E"/>
<path d="M36.8811 98.0032C36.8811 98.0032 37.0266 99.7097 36.2722 99.6659L22.6051 99.5369C22.0429 99.4486 21.8128 99.2571 21.7922 98.5668L21.7882 97.8484L36.8811 98.0032Z" fill="#C7D2DD"/>
<path d="M6.87333 12.6836L4.72083 7.33283C4.72083 7.33283 4.71687 4.23961 5.83187 3.1843C7.32961 1.76628 9.58333 1.45673 9.58333 1.45673C9.58333 1.45673 11.1712 1.53724 14.7092 2.38618C15.2129 2.50734 15.4652 3.60017 15.4652 3.60017C15.4652 3.60017 16.5201 8.29512 16.384 9.52474C16.1476 11.644 15.2129 16.1724 15.2129 16.1724L11.244 17.0213C11.244 17.0213 9.8174 17.5834 9.34373 17.3504C8.67868 17.0252 6.87333 12.6836 6.87333 12.6836Z" fill="#3C2927"/>
<path d="M9.43153 19.9215L7.71317 12.8596L14.8816 13.9727L15.6645 18.0532C15.8622 19.0843 16.2884 21.9805 15.1323 22.8333C13.9556 23.7018 12.321 23.3743 11.8252 23.0624C9.88386 21.8382 9.43153 19.9215 9.43153 19.9215Z" fill="#ECCCB4"/>
<path d="M9.38961 16.7391C10.6651 17.4966 11.5208 18.0133 12.7955 18.5495C13.4716 18.8356 14.6008 18.8872 15.6826 18.1556L15.2342 15.812L14.5866 13.9274L7.71317 12.8596L8.51106 16.1427C8.70006 16.3303 9.05037 16.5382 9.38961 16.7391Z" fill="#D3A986"/>
<path d="M12.0482 2.97011C16.6482 2.93337 16.6988 7.90897 16.6988 7.90897C16.6988 7.90897 17.0238 13.0855 16.9835 14.1134C16.9684 14.552 16.6917 15.3188 16.4837 15.8082C16.1761 16.5312 15.9373 17.2051 15.617 17.5232C14.865 18.2659 13.2083 18.3597 12.5156 18.0548C11.3729 17.5537 10.6066 17.0714 9.46633 16.364C8.19871 15.5791 8.34975 15.0108 7.85314 13.8046C7.04259 11.8355 6.57207 10.3628 6.4756 9.94063L6.45978 9.85934L5.84851 6.93339C5.84851 6.93339 6.96667 3.01076 12.0482 2.97011Z" fill="#EAD4C0"/>
<path d="M13.5791 10.7255C13.519 10.0595 12.7678 9.70536 12.7449 9.94221L12.8999 13.6373C12.8999 13.6373 12.96 14.0329 13.7468 14.0938C14.1517 14.1243 14.4443 14.0508 14.623 13.9578C14.8207 13.8562 14.8159 13.6717 14.7361 13.6936C14.2268 13.8241 13.9397 13.6889 13.8939 13.3708C13.8045 12.7516 13.6748 11.7558 13.5791 10.7255Z" fill="#D3A986"/>
<path d="M12.728 9.42794C12.728 9.58043 12.5951 9.69616 12.4393 9.69694C11.9187 9.69694 10.8223 9.7032 10.2789 9.75168C9.98775 9.77748 9.06141 9.80251 9.16266 9.69694C9.33986 9.51005 9.67844 9.25981 10.2298 9.21211C10.816 9.15972 11.9702 9.15503 12.4796 9.15503C12.6252 9.15503 12.7296 9.28406 12.728 9.42794Z" fill="#423026"/>
<path d="M16.6538 8.46474C16.9117 8.56484 16.2796 8.89093 15.8588 8.96053C15.4126 9.0356 14.8755 9.1576 14.5559 9.2311C14.4001 9.26864 14.2561 9.18418 14.2284 9.05046C14.1999 8.91361 14.3099 8.77129 14.4728 8.73297C14.8027 8.65712 15.3438 8.53512 15.8074 8.45614C16.2021 8.39045 16.4402 8.38185 16.6538 8.46474Z" fill="#423026"/>
<path d="M14.1556 9.30592L14.9575 13.4638C14.9575 13.4638 14.6594 13.4826 14.3423 13.5928C14.0267 13.703 13.6582 9.11206 13.6582 9.11206L14.1556 9.30592Z" fill="#EAD4C0"/>
<path d="M11.5691 10.7638C11.4323 10.7873 11.3105 10.8131 11.1989 10.8373L11.1981 10.9749C11.2337 11.1915 11.4323 11.3393 11.6395 11.3041C11.8452 11.2682 11.9837 11.0649 11.9481 10.8483L11.9077 10.7286C11.8144 10.7302 11.7012 10.7411 11.5691 10.7638Z" fill="#46848A"/>
<path d="M12.3723 10.4487L12.2196 10.4769C12.0408 10.5668 11.8961 10.6427 11.5694 10.7092C11.1556 10.7975 10.8455 10.7772 10.677 10.7381C10.6256 10.7256 10.5781 10.7662 10.5702 10.8296C10.5592 10.8921 10.6003 10.9571 10.6549 10.9688C10.8384 11.0118 11.1446 11.065 11.5923 10.9711C12.0092 10.8851 12.3074 10.7232 12.3968 10.609L12.3723 10.4487Z" fill="#302B27"/>
<path d="M15.8377 10.2166C15.7317 10.2252 15.6384 10.2369 15.5514 10.251L15.5443 10.3769C15.5601 10.5778 15.7025 10.7287 15.8623 10.7154C16.0229 10.7029 16.1399 10.5301 16.1241 10.3292L16.0996 10.2174C16.0284 10.2096 15.9414 10.2088 15.8377 10.2166Z" fill="#46848A"/>
<path d="M16.4708 10.0039L16.3513 10.0164C16.2089 10.0821 16.0942 10.1368 15.8427 10.1681C15.5207 10.2096 15.2842 10.1619 15.1584 10.1118L15.0706 10.1845L15.1283 10.3198C15.2676 10.3761 15.497 10.4535 15.8458 10.409C16.1694 10.3683 16.4059 10.2487 16.4803 10.1525L16.4708 10.0039Z" fill="#302B27"/>
<path d="M14.7629 15.2799C14.611 15.3331 14.4338 15.3839 14.2297 15.4277C13.5921 15.5653 13.0937 15.423 12.8714 15.3354C12.8026 15.3096 12.7797 15.2283 12.8145 15.1641C12.8517 15.0969 12.9323 15.0703 13.002 15.0969C13.2045 15.1688 13.634 15.2799 14.1711 15.1641C14.6838 15.0555 15.0192 14.8897 15.1782 14.7951C15.243 14.7583 15.3261 14.7732 15.3736 14.831C15.4163 14.8873 15.4131 14.9687 15.3506 15.0078C15.243 15.0734 15.0484 15.1798 14.7629 15.2799Z" fill="#D3A986"/>
<path d="M14.4042 15.8051C14.3449 15.8255 14.2745 15.8435 14.1946 15.8552C13.947 15.8943 13.7706 15.87 13.6646 15.8435C13.5989 15.827 13.5878 15.7465 13.6171 15.6855C13.6495 15.6182 13.7239 15.5846 13.7983 15.594C13.8797 15.6057 13.9984 15.6136 14.1527 15.5901C14.2563 15.5737 14.333 15.5463 14.3892 15.5197C14.4667 15.4814 14.5577 15.4462 14.6344 15.4876C14.6953 15.5228 14.7207 15.6049 14.6684 15.6534C14.6131 15.7035 14.5284 15.7606 14.4042 15.8051Z" fill="#D3A986"/>
<path d="M8.97047 12.5711C8.97047 12.5711 8.07768 11.2109 7.94879 11.0084C7.3304 10.0477 6.26206 9.69596 5.81053 10.5144C5.3076 11.4235 6.3103 12.8423 7.56447 13.7975C8.26747 14.333 9.35399 14.6262 9.34846 13.9164C9.34451 13.205 8.97047 12.5711 8.97047 12.5711Z" fill="#EAD4C0"/>
<path d="M45 47.4556L23.0922 50.8084L19.699 29.1503L41.6068 25.7983L45 47.4556Z" fill="#DCB64D"/>
<path d="M38.5117 48.4483L16.6039 51.8019L13.2115 30.1454L35.12 26.7903L38.5117 48.4483Z" fill="#F6DC87"/>
<path d="M6.18457 9.89062L7.92586 11.8582C7.92586 11.8582 8.59565 12.2076 8.49523 11.6839C8.25957 10.4542 8.01839 7.88397 8.01839 7.88397C8.01839 7.88397 7.85074 6.93419 9.1832 6.93888C10.8865 6.94904 12.0008 6.85055 13.9943 6.42139C15.477 6.1001 15.6399 4.29045 15.6399 4.29045L13.4012 2.6043C13.4012 2.6043 9.71382 2.25253 9.60074 2.21579C9.48607 2.17905 6.99512 3.48607 6.99512 3.48607L5.26963 5.27306C5.26963 5.27306 5.05771 6.59024 5.13678 6.85055C5.21586 7.11476 6.18457 9.89062 6.18457 9.89062Z" fill="#3C2927"/>
<path d="M1.58936 32.5187L5.81607 44.1404C6.36409 44.969 6.87098 45.5044 7.56053 45.6264C7.56053 45.6264 8.43039 46.6653 14.5036 47.8894C19.1755 48.8322 20.6487 49.2637 20.6487 49.2637L21.8824 46.9311L10.6446 41.1793C10.4761 41.1675 10.1322 40.6508 10.0934 40.4874L7.51783 29.5584L1.58936 32.5187Z" fill="#ECCCB4"/>
<path d="M21.4181 46.899C21.4181 46.899 24.7157 46.2924 25.6093 47.5682C27.2731 49.9391 33.8903 48.5977 28.4197 51.107C26.7456 51.8746 25.9272 51.6932 24.9229 51.4751C24.1455 51.3071 23.694 51.1617 22.6652 50.6966C21.4007 50.1251 20.6487 49.2637 20.6487 49.2637L21.4181 46.899Z" fill="#ECCCB4"/>
<path d="M9.94791 36.5547C9.94791 36.5547 7.5898 29.069 6.818 26.5894C6.41549 25.2902 4.81811 22.3408 2.96452 22.3408C1.18526 22.3408 -1.10009 25.1151 0.59534 30.0313C1.73723 33.3505 1.85664 35.232 2.79846 37.689L9.94791 36.5547Z" fill="#FFE17D"/>
<path d="M5.71959 9.81635C5.71959 9.81635 6.44711 8.21541 7.71315 7.71981C7.71315 7.71981 11.2408 3.8871 16.4157 5.25665C16.4157 5.25665 14.7883 -1.16273 8.74038 0.685224C8.74038 0.685224 3.26264 1.79681 4.63306 7.24844C4.76828 7.78782 5.43886 9.18863 5.71959 9.81635Z" fill="#E95333"/>
<path d="M6.82986 8.29199L12.7449 7.78622C12.7449 7.78622 15.4011 5.48329 19.1004 6.154L16.4157 5.2566C16.4157 5.2566 12.2823 2.79185 6.82986 8.29199Z" fill="#EE785C"/>
<path d="M13.2573 51.569C13.2573 51.569 10.0547 54.0025 7.62381 53.0097L7.99785 58.6286C7.99785 58.6286 16.3912 60.26 13.2573 51.569Z" fill="#3E537C"/>
<path d="M16.01 95.0663L18.5769 96.9792C18.9881 97.5287 19.5851 97.9626 19.5891 98.9858C19.5899 99.3392 19.5899 99.5776 19.5923 100.135C19.593 101.035 19.3281 101.035 18.7635 101.039L13.6986 101.057C12.8398 101.06 11.0779 100.47 9.69248 99.7441C9.14605 99.4572 9.27494 98.3292 9.27336 97.2325L9.72885 97.0753L16.01 95.0663Z" fill="#E7EBEF"/>
<path d="M9.36983 94.6223C9.36983 94.6223 9.71066 94.9616 9.94947 95.2508C10.7474 96.2225 11.4709 95.4806 12.4705 94.5567C13.0644 94.0102 13.2581 93.7789 14.2727 93.4615C14.9456 93.2496 15.5941 93.1308 15.7166 93.61C15.8938 94.3026 16.7454 94.8928 16.7454 94.8928L18.6749 96.1107C19.4285 96.8173 19.5851 97.8383 19.5867 98.6262C19.5875 98.985 19.3162 99.0593 18.7595 99.0608L14.1374 99.0773C13.0707 99.0804 11.9794 98.9717 10.4279 98.0962L9.27336 97.3755L9.26782 95.465C9.30183 94.6856 9.36983 94.6223 9.36983 94.6223Z" fill="#527A92"/>
<path d="M44.025 41.1644L44.1499 40.951C44.8379 39.7714 44.7446 38.2885 43.9103 37.2035L43.2619 36.3585C43.065 37.2512 41.6676 37.6702 40.9132 38.5598C40.627 38.8951 41.6795 41.1409 43.4524 41.2488C43.5987 41.2582 43.5291 41.334 44.025 41.1644Z" fill="#D3A986"/>
<path d="M99.4728 40.8658C98.614 40.564 93.8725 41.9516 93.8725 41.9516L93.1039 44.5492C93.1039 44.5492 93.7317 45.4482 95.1203 45.3856C95.84 45.3536 96.8308 45.0768 97.6856 45.0979L100.885 42.3612C100.533 41.7616 99.9947 41.051 99.4728 40.8658Z" fill="#D3A986"/>
<path d="M79.8781 28.2037L83.7023 39.4267C84.0636 40.3053 83.8565 39.9066 84.2408 40.5148C84.2408 40.5148 85.5147 42.1024 89.3722 42.978C90.6619 43.2711 93.1038 44.5492 93.1038 44.5492L94.3367 41.8195L88.7324 38.0563C88.5632 38.0446 88.4208 37.7264 88.3829 37.5638L85.8073 25.2433L79.8781 28.2037Z" fill="#D3A986"/>
<path d="M88.9902 30.8834C87.6237 28.3077 85.5978 23.2078 84.5041 21.313C82.8775 18.4926 79.2842 19.0429 79.2842 19.0429L81.3022 29.9649C81.3022 29.9649 82.1689 32.0544 83.1622 34.1166L88.9902 30.8834Z" fill="#E8B900"/>
<path d="M84.3436 24.2561C84.4124 20.1388 81.4588 19.3422 81.4588 19.3422C81.4588 19.3422 80.9353 19.107 79.6756 19.035L72.1909 19.1906C72.1173 19.1906 69.5631 19.6823 68.8981 19.7964C68.8981 19.7964 61.7186 22.0962 61.2995 22.3409C58.7785 23.8058 60.1141 28.933 60.1141 28.933L65.6092 40.951C65.6092 40.951 66.3138 48.7071 66.6159 49.0409C67.3102 49.8062 68.713 50.3503 69.8486 50.5324V50.5457C69.8486 50.5457 74.1916 51.121 76.7323 50.9209C84.5389 50.3096 85.2134 47.6909 85.1613 47.3727C84.716 44.6086 84.8268 43.9059 84.905 41.1316C84.9675 38.9131 84.2985 26.8685 84.3436 24.2561Z" fill="#FFCC00"/>
<path d="M86.6274 66.62C86.5238 64.9463 86.523 61.5866 86.0746 58.1564C85.7709 52.045 84.4527 27.8082 84.4527 27.8082H83.0934C81.9792 19.3399 77.9865 19.0679 77.9865 19.0679L75.1642 19.1288C80.1912 20.5672 79.7159 28.3053 79.7159 28.3053L71.9623 29.9907C70.6212 21.6334 66.0687 20.7165 66.0687 20.7165L63.7311 21.4802C68.9953 23.8472 68.9938 31.9848 68.9938 31.9848C68.3042 33.7742 64.4563 33.696 64.4563 33.696C65.9714 38.7325 66.0789 48.4132 66.7155 53.7437L66.9614 57.3692L67.4446 70.9233L68.4315 95.9567L74.4248 95.7894L75.5161 72.6798L76.6335 58.3268C77.9051 61.7546 78.7417 65.8969 79.1482 68.0998C79.9967 72.6954 81.772 95.4556 81.772 95.4556L87.2892 95.4017C87.2892 95.4017 86.9848 72.3351 86.6274 66.62Z" fill="#2C3449"/>
<path d="M74.8076 18.9287L68.4363 19.9426C68.4481 20.5445 68.5818 21.2004 68.8546 21.8109C69.7656 23.8512 71.8635 24.9112 73.5392 24.1795C75.2156 23.4478 75.8356 21.2004 74.9238 19.1609C74.8867 19.0811 74.8463 19.0053 74.8076 18.9287Z" fill="#FEFEFE"/>
<path d="M81.2374 93.8711C81.6249 93.7593 82.3809 94.0658 82.7541 94.1697C83.4959 94.3777 84.3001 94.7974 84.6465 94.8928C85.1383 95.0296 85.8073 94.7959 86.7238 93.6155C87.3699 92.7838 87.6799 92.6517 87.706 93.1559C87.7503 94.0392 88.6739 94.373 89.218 94.5278L93.5728 95.0109C95.7024 95.2923 95.8534 97.0488 95.8811 98.0142L95.496 98.6849C95.36 99.3462 95.4098 99.6698 95.2722 99.6659L88.885 99.4283C88.2833 99.4455 83.6548 99.5025 83.6548 99.5025L81.3181 99.3525C80.8713 99.3657 80.8009 98.3057 80.7882 97.8868L80.8175 94.7013C80.8452 94.305 81.0191 93.9352 81.2374 93.8711Z" fill="#425C6E"/>
<path d="M95.8811 98.0032C95.8811 98.0032 96.0266 99.7097 95.2722 99.6659L81.6051 99.5369C81.0429 99.4486 80.8128 99.2571 80.7922 98.5668L80.7882 97.8484L95.8811 98.0032Z" fill="#C7D2DD"/>
<path d="M65.8733 12.6836L63.7208 7.33283C63.7208 7.33283 63.7169 4.23961 64.8319 3.1843C66.3296 1.76628 68.5833 1.45673 68.5833 1.45673C68.5833 1.45673 70.1712 1.53724 73.7092 2.38618C74.2129 2.50734 74.4652 3.60017 74.4652 3.60017C74.4652 3.60017 75.5201 8.29512 75.384 9.52474C75.1476 11.644 74.2129 16.1724 74.2129 16.1724L70.244 17.0213C70.244 17.0213 68.8174 17.5834 68.3437 17.3504C67.6787 17.0252 65.8733 12.6836 65.8733 12.6836Z" fill="#3C2927"/>
<path d="M68.4315 19.9215L66.7132 12.8596L73.8816 13.9727L74.6645 18.0532C74.8622 19.0843 75.2884 21.9805 74.1323 22.8333C72.9556 23.7018 71.321 23.3743 70.8252 23.0624C68.8839 21.8382 68.4315 19.9215 68.4315 19.9215Z" fill="#ECCCB4"/>
<path d="M68.3896 16.7391C69.6651 17.4966 70.5208 18.0133 71.7955 18.5495C72.4716 18.8356 73.6008 18.8872 74.6826 18.1556L74.2342 15.812L73.5866 13.9274L66.7132 12.8596L67.5111 16.1427C67.7001 16.3303 68.0504 16.5382 68.3896 16.7391Z" fill="#D3A986"/>
<path d="M71.0482 2.97011C75.6482 2.93337 75.6988 7.90897 75.6988 7.90897C75.6988 7.90897 76.0238 13.0855 75.9835 14.1134C75.9684 14.552 75.6917 15.3188 75.4837 15.8082C75.1761 16.5312 74.9373 17.2051 74.617 17.5232C73.865 18.2659 72.2083 18.3597 71.5156 18.0548C70.3729 17.5537 69.6066 17.0714 68.4663 16.364C67.1987 15.5791 67.3497 15.0108 66.8531 13.8046C66.0426 11.8355 65.5721 10.3628 65.4756 9.94063L65.4598 9.85934L64.8485 6.93339C64.8485 6.93339 65.9667 3.01076 71.0482 2.97011Z" fill="#EAD4C0"/>
<path d="M72.5791 10.7255C72.519 10.0595 71.7678 9.70536 71.7449 9.94221L71.8999 13.6373C71.8999 13.6373 71.96 14.0329 72.7468 14.0938C73.1517 14.1243 73.4443 14.0508 73.623 13.9578C73.8207 13.8562 73.8159 13.6717 73.7361 13.6936C73.2268 13.8241 72.9397 13.6889 72.8939 13.3708C72.8045 12.7516 72.6748 11.7558 72.5791 10.7255Z" fill="#D3A986"/>
<path d="M71.728 9.42794C71.728 9.58043 71.5951 9.69616 71.4393 9.69694C70.9187 9.69694 69.8223 9.7032 69.2789 9.75168C68.9877 9.77748 68.0614 9.80251 68.1627 9.69694C68.3399 9.51005 68.6784 9.25981 69.2298 9.21211C69.816 9.15972 70.9702 9.15503 71.4796 9.15503C71.6252 9.15503 71.7296 9.28406 71.728 9.42794Z" fill="#423026"/>
<path d="M75.6538 8.46474C75.9117 8.56484 75.2796 8.89093 74.8588 8.96053C74.4126 9.0356 73.8755 9.1576 73.5559 9.2311C73.4001 9.26864 73.2561 9.18418 73.2284 9.05046C73.1999 8.91361 73.3099 8.77129 73.4728 8.73297C73.8027 8.65712 74.3438 8.53512 74.8074 8.45614C75.2021 8.39045 75.4402 8.38185 75.6538 8.46474Z" fill="#423026"/>
<path d="M73.1556 9.30592L73.9575 13.4638C73.9575 13.4638 73.6594 13.4826 73.3423 13.5928C73.0267 13.703 72.6582 9.11206 72.6582 9.11206L73.1556 9.30592Z" fill="#EAD4C0"/>
<path d="M70.5691 10.7638C70.4323 10.7873 70.3105 10.8131 70.1989 10.8373L70.1981 10.9749C70.2337 11.1915 70.4323 11.3393 70.6395 11.3041C70.8452 11.2682 70.9837 11.0649 70.9481 10.8483L70.9077 10.7286C70.8144 10.7302 70.7012 10.7411 70.5691 10.7638Z" fill="#46848A"/>
<path d="M71.3723 10.4487L71.2196 10.4769C71.0408 10.5668 70.8961 10.6427 70.5694 10.7092C70.1556 10.7975 69.8455 10.7772 69.677 10.7381C69.6256 10.7256 69.5781 10.7662 69.5702 10.8296C69.5592 10.8921 69.6003 10.9571 69.6549 10.9688C69.8384 11.0118 70.1446 11.065 70.5923 10.9711C71.0092 10.8851 71.3074 10.7232 71.3968 10.609L71.3723 10.4487Z" fill="#302B27"/>
<path d="M74.8377 10.2166C74.7317 10.2252 74.6384 10.2369 74.5514 10.251L74.5443 10.3769C74.5601 10.5778 74.7025 10.7287 74.8623 10.7154C75.0229 10.7029 75.1399 10.5301 75.1241 10.3292L75.0996 10.2174C75.0284 10.2096 74.9414 10.2088 74.8377 10.2166Z" fill="#46848A"/>
<path d="M75.4708 10.0039L75.3513 10.0164C75.2089 10.0821 75.0942 10.1368 74.8427 10.1681C74.5207 10.2096 74.2842 10.1619 74.1584 10.1118L74.0706 10.1845L74.1283 10.3198C74.2676 10.3761 74.497 10.4535 74.8458 10.409C75.1694 10.3683 75.4059 10.2487 75.4803 10.1525L75.4708 10.0039Z" fill="#302B27"/>
<path d="M73.7629 15.2799C73.611 15.3331 73.4338 15.3839 73.2297 15.4277C72.5921 15.5653 72.0937 15.423 71.8714 15.3354C71.8026 15.3096 71.7797 15.2283 71.8145 15.1641C71.8517 15.0969 71.9323 15.0703 72.002 15.0969C72.2045 15.1688 72.634 15.2799 73.1711 15.1641C73.6838 15.0555 74.0192 14.8897 74.1782 14.7951C74.243 14.7583 74.3261 14.7732 74.3736 14.831C74.4163 14.8873 74.4131 14.9687 74.3506 15.0078C74.243 15.0734 74.0484 15.1798 73.7629 15.2799Z" fill="#D3A986"/>
<path d="M73.4042 15.8051C73.3449 15.8255 73.2745 15.8435 73.1946 15.8552C72.947 15.8943 72.7706 15.87 72.6646 15.8435C72.5989 15.827 72.5878 15.7465 72.6171 15.6855C72.6495 15.6182 72.7239 15.5846 72.7983 15.594C72.8797 15.6057 72.9984 15.6136 73.1527 15.5901C73.2563 15.5737 73.333 15.5463 73.3892 15.5197C73.4667 15.4814 73.5577 15.4462 73.6344 15.4876C73.6953 15.5228 73.7207 15.6049 73.6684 15.6534C73.6131 15.7035 73.5284 15.7606 73.4042 15.8051Z" fill="#D3A986"/>
<path d="M67.9705 12.5711C67.9705 12.5711 67.0777 11.2109 66.9488 11.0084C66.3304 10.0477 65.2621 9.69596 64.8105 10.5144C64.3076 11.4235 65.3103 12.8423 66.5645 13.7975C67.2675 14.333 68.354 14.6262 68.3485 13.9164C68.3445 13.205 67.9705 12.5711 67.9705 12.5711Z" fill="#EAD4C0"/>
<path d="M104 47.4556L82.0922 50.8084L78.699 29.1503L100.607 25.7983L104 47.4556Z" fill="#DCB64D"/>
<path d="M97.5117 48.4483L75.6039 51.8019L72.2115 30.1454L94.12 26.7903L97.5117 48.4483Z" fill="#F6DC87"/>
<path d="M65.1846 9.89062L66.9259 11.8582C66.9259 11.8582 67.5957 12.2076 67.4952 11.6839C67.2596 10.4542 67.0184 7.88397 67.0184 7.88397C67.0184 7.88397 66.8507 6.93419 68.1832 6.93888C69.8865 6.94904 71.0008 6.85055 72.9943 6.42139C74.477 6.1001 74.6399 4.29045 74.6399 4.29045L72.4012 2.6043C72.4012 2.6043 68.7138 2.25253 68.6007 2.21579C68.4861 2.17905 65.9951 3.48607 65.9951 3.48607L64.2696 5.27306C64.2696 5.27306 64.0577 6.59024 64.1368 6.85055C64.2159 7.11476 65.1846 9.89062 65.1846 9.89062Z" fill="#3C2927"/>
<path d="M60.5894 32.5187L64.8161 44.1404C65.3641 44.969 65.871 45.5044 66.5605 45.6264C66.5605 45.6264 67.4304 46.6653 73.5036 47.8894C78.1755 48.8322 79.6487 49.2637 79.6487 49.2637L80.8824 46.9311L69.6446 41.1793C69.4761 41.1675 69.1322 40.6508 69.0934 40.4874L66.5178 29.5584L60.5894 32.5187Z" fill="#ECCCB4"/>
<path d="M80.4181 46.899C80.4181 46.899 83.7157 46.2924 84.6093 47.5682C86.2731 49.9391 92.8903 48.5977 87.4197 51.107C85.7456 51.8746 84.9272 51.6932 83.9229 51.4751C83.1455 51.3071 82.694 51.1617 81.6652 50.6966C80.4007 50.1251 79.6487 49.2637 79.6487 49.2637L80.4181 46.899Z" fill="#ECCCB4"/>
<path d="M68.9479 36.5547C68.9479 36.5547 66.5898 29.069 65.818 26.5894C65.4155 25.2902 63.8181 22.3408 61.9645 22.3408C60.1853 22.3408 57.8999 25.1151 59.5953 30.0313C60.7372 33.3505 60.8566 35.232 61.7985 37.689L68.9479 36.5547Z" fill="#FFE17D"/>
<path d="M64.7196 9.81635C64.7196 9.81635 65.4471 8.21541 66.7132 7.71981C66.7132 7.71981 70.2408 3.8871 75.4157 5.25665C75.4157 5.25665 73.7883 -1.16273 67.7404 0.685224C67.7404 0.685224 62.2626 1.79681 63.6331 7.24844C63.7683 7.78782 64.4389 9.18863 64.7196 9.81635Z" fill="#E95333"/>
<path d="M65.8299 8.29199L71.7449 7.78622C71.7449 7.78622 74.4011 5.48329 78.1004 6.154L75.4157 5.2566C75.4157 5.2566 71.2823 2.79185 65.8299 8.29199Z" fill="#EE785C"/>
<path d="M72.2573 51.569C72.2573 51.569 69.0547 54.0025 66.6238 53.0097L66.9978 58.6286C66.9978 58.6286 75.3912 60.26 72.2573 51.569Z" fill="#3E537C"/>
<path d="M75.01 95.0663L77.5769 96.9792C77.9881 97.5287 78.5851 97.9626 78.5891 98.9858C78.5899 99.3392 78.5899 99.5776 78.5923 100.135C78.593 101.035 78.3281 101.035 77.7635 101.039L72.6986 101.057C71.8398 101.06 70.0779 100.47 68.6925 99.7441C68.146 99.4572 68.2749 98.3292 68.2734 97.2325L68.7289 97.0753L75.01 95.0663Z" fill="#E7EBEF"/>
<path d="M68.3698 94.6223C68.3698 94.6223 68.7107 94.9616 68.9495 95.2508C69.7474 96.2225 70.4709 95.4806 71.4705 94.5567C72.0644 94.0102 72.2581 93.7789 73.2727 93.4615C73.9456 93.2496 74.5941 93.1308 74.7166 93.61C74.8938 94.3026 75.7454 94.8928 75.7454 94.8928L77.6749 96.1107C78.4285 96.8173 78.5851 97.8383 78.5867 98.6262C78.5875 98.985 78.3162 99.0593 77.7595 99.0608L73.1374 99.0773C72.0707 99.0804 70.9794 98.9717 69.4279 98.0962L68.2734 97.3755L68.2678 95.465C68.3018 94.6856 68.3698 94.6223 68.3698 94.6223Z" fill="#527A92"/>
<path d="M103.025 41.1644L103.15 40.951C103.838 39.7714 103.745 38.2885 102.91 37.2035L102.262 36.3585C102.065 37.2512 100.668 37.6702 99.9132 38.5598C99.627 38.8951 100.68 41.1409 102.452 41.2488C102.599 41.2582 102.529 41.334 103.025 41.1644Z" fill="#D3A986"/>
</svg>
