<svg width="29" height="29" viewBox="0 0 29 29" fill="none" xmlns="http://www.w3.org/2000/svg">
<path d="M14.5087 23.5399C14.5087 24.0508 14.2135 24.5149 13.7516 24.7316C13.573 24.816 13.3816 24.8569 13.1915 24.8569C12.8904 24.8569 12.5921 24.7534 12.3511 24.5536L5.15148 18.5876H1.31693C0.589737 18.5883 0 17.9982 0 17.271V12.0242C0 11.2967 0.589737 10.7069 1.31693 10.7069H5.15179L12.3514 4.74097C12.7448 4.41493 13.2903 4.34542 13.7519 4.56361C14.2135 4.78025 14.509 5.24468 14.509 5.75525L14.5087 23.5399ZM19.5698 21.4821C19.5377 21.4843 19.5068 21.4855 19.4751 21.4855C19.1272 21.4855 18.7918 21.3481 18.544 21.1L18.3679 20.9232C17.906 20.4622 17.8517 19.7319 18.2407 19.2076C19.2269 17.8779 19.7475 16.3016 19.7475 14.6481C19.7475 12.8695 19.1565 11.2013 18.0381 9.82356C17.6123 9.2999 17.6516 8.53935 18.1288 8.06245L18.3046 7.88634C18.5677 7.62327 18.9202 7.47988 19.3017 7.50264C19.6733 7.52134 20.0202 7.6962 20.2559 7.98422C21.8072 9.88247 22.6267 12.1872 22.6267 14.6484C22.6267 16.9406 21.902 19.1225 20.5305 20.9572C20.3014 21.263 19.951 21.455 19.5698 21.4821ZM25.0146 25.552C24.7765 25.8334 24.432 26.0024 24.0633 26.018C24.0452 26.0186 24.0268 26.0192 24.0081 26.0192C23.6593 26.0192 23.3246 25.8814 23.0768 25.6336L22.9038 25.4606C22.4203 24.9775 22.3876 24.2048 22.8271 23.6818C24.951 21.1557 26.1211 17.9477 26.1211 14.6481C26.1211 11.2159 24.8684 7.9119 22.5946 5.34474C22.1335 4.82357 22.1569 4.03466 22.6475 3.54217L22.8202 3.36918C23.0764 3.11171 23.4093 2.96989 23.7912 2.98205C24.1537 2.99233 24.4965 3.15255 24.7375 3.42373C27.4861 6.51829 29 10.5049 29 14.6481C29.0006 18.6344 27.5852 22.507 25.0146 25.552Z" fill="white"/>
</svg>
