<svg width="27" height="27" viewBox="0 0 27 27" fill="none" xmlns="http://www.w3.org/2000/svg">
<path d="M0 27L1.86205 20.25C0.651744 18.1552 0 15.8276 0 13.4069C0 6.05174 6.05174 0 13.4534 0C20.8551 0 27 6.05174 27 13.4069C27 20.762 20.8552 27 13.4534 27C11.1258 27 8.89138 26.2552 6.88964 25.1379L0 27Z" fill="white"/>
<path d="M7.26209 22.7172L7.68107 22.95C9.40348 24.0207 11.4052 24.6724 13.5 24.6724C19.5983 24.6724 24.6725 19.5983 24.6725 13.4069C24.6725 7.21549 19.5983 2.32759 13.4535 2.32759C7.30865 2.32759 2.32763 7.26205 2.32763 13.4069C2.32763 15.5483 2.93281 17.6431 4.05004 19.4121L4.32937 19.831L3.25871 23.7414L7.26209 22.7172Z" fill="#55CD6C"/>
<path d="M9.86895 7.16897L8.98449 7.12241C8.70515 7.12241 8.42587 7.21553 8.23967 7.40174C7.82069 7.77415 7.12244 8.47241 6.93623 9.40348C6.61039 10.8 7.12244 12.4759 8.33279 14.1517C9.54315 15.8276 11.8707 18.5276 15.9673 19.6914C17.2707 20.0638 18.2948 19.831 19.1328 19.319C19.7845 18.9 20.2035 18.2483 20.3432 17.55L20.4828 16.8983C20.5294 16.712 20.4362 16.4793 20.25 16.3862L17.3173 15.0362C17.131 14.9431 16.8983 14.9896 16.7586 15.1758L15.5948 16.6655C15.5017 16.7586 15.3621 16.8051 15.2224 16.7586C14.431 16.4793 11.7776 15.362 10.3345 12.569C10.2879 12.4293 10.2879 12.2896 10.3811 12.1966L11.4983 10.9397C11.5914 10.8 11.6379 10.6138 11.5914 10.4742L10.2414 7.4483C10.1948 7.30861 10.0552 7.16897 9.86895 7.16897Z" fill="#FEFEFE"/>
</svg>
